<?xml version="1.0" encoding="utf-8"?>
<!-- Generator: Adobe Illustrator 21.1.0, SVG Export Plug-In . SVG Version: 6.00 Build 0)  -->
<svg version="1.1" id="Layer_1" xmlns="http://www.w3.org/2000/svg" xmlns:xlink="http://www.w3.org/1999/xlink" x="0px" y="0px"
	 viewBox="0 0 800 600" style="enable-background:new 0 0 800 600;" xml:space="preserve">
<style type="text/css">
	.st0{fill:#038203;}
	.st1{opacity:0.23;}
	.st2{fill:#08BC08;}
	.st3{fill:#724D03;}
	.st4{opacity:0.8;}
	.st5{fill:#634105;}
	.st6{fill:#036803;}
	.st7{fill:#EA4D07;}
	.st8{fill:#D34209;}
	.st9{fill:#F95C1E;}
	.st10{opacity:0.2;}
	.st11{fill:#05D105;}
	.st12{fill:#FCB71D;}
	.st13{fill:#F9951E;}
	.st14{opacity:0.6;}
</style>
<g>
	<g>
		<g>
			<g>
				<path class="st0" d="M102.3,265.1c0.2-2.9,5.4-3.8,7.7-4.3c-0.2-0.3-0.3-0.6-0.5-0.8c-1.1,1.1-2.1,2.3-3.1,3.5
					c-0.4,0.5-0.7,1-1.3,1.1c-0.8,0.2-1.9,0-2.8,0.1c0.1,0.3,0.3,0.5,0.4,0.8c0.6-1.1,1.2-2.1,2.3-2.7c1-0.6,2.3-0.9,3.4-1.1
					c-0.2-0.3-0.3-0.6-0.5-0.8c-0.7,0.6-1.2,1.3-1.7,2c-1,1.3-1.7,1.4-3.2,1.4c0.1,0.3,0.2,0.6,0.3,0.9c1.3-0.9,2.3-1.9,3.7-2.6
					c-0.2-0.3-0.4-0.5-0.6-0.8c-0.3,0.3-1.4,2.2-1.7,2.1c0,0.3,0.1,0.6,0.1,0.9c0.4-0.2,0.4-0.2,0.7-0.6c0.3-0.6-0.6-1.1-0.9-0.5
					c-0.1,0.1-0.2,0.2-0.3,0.3c-0.4,0.2-0.3,0.8,0.1,0.9c1.5,0.3,1.8-1.5,2.7-2.4c0.4-0.4-0.1-1-0.6-0.8c-1.4,0.7-2.4,1.8-3.7,2.6
					c-0.4,0.3-0.3,0.9,0.3,0.9c0.9,0,2.1,0.3,2.8-0.3c1.1-0.8,1.8-2.5,2.8-3.5c0.4-0.4,0-0.9-0.5-0.8c-1.4,0.3-2.9,0.7-4.1,1.4
					c-1.1,0.7-1.7,1.8-2.2,2.9c-0.2,0.3,0,0.8,0.4,0.8c1.1-0.1,2.2-0.1,3.4,0c0.2,0,0.3-0.1,0.4-0.2c1.2-1.7,2.6-3.3,4.1-4.8
					c0.4-0.4,0-0.9-0.5-0.8c-2.8,0.5-8.1,1.6-8.4,5.2C101.3,265.7,102.3,265.7,102.3,265.1L102.3,265.1z"/>
			</g>
		</g>
		<g>
			<g>
				<path class="st0" d="M101.8,265.6c0.6,0,0.6-1,0-1C101.1,264.6,101.1,265.6,101.8,265.6L101.8,265.6z"/>
			</g>
		</g>
		<g>
			<g>
				<path class="st0" d="M101.7,265.7c0.6,0,0.6-1,0-1C101.1,264.7,101.1,265.7,101.7,265.7L101.7,265.7z"/>
			</g>
		</g>
		<g>
			<g>
				<path class="st0" d="M122,241.4c-2.3-0.4-5.8,0.1-7.1,2.5c-0.5,1-1,3.6-0.1,4.4c0.8,0.7,3.1,0.4,4.1,0.5
					c1.3,0.2,2.3,0.6,3.4,1.2c0.3,0.2,0.6,0.5,1,0.6c1,0.2,2.3-0.5,3.2-0.9c2-0.9,3.9-1.8,6-2.5c1.7-0.6,4.3-0.7,5.9-1.6
					c0.7-0.4,0.6-0.3,0.8-1c0.5-1.2-0.2-3.4-0.4-4.7c-0.2-1.3-0.5-2.7-1.6-3.6c-1.9-1.6-4.7-1.7-7-1.1c-1.5,0.3-3,0.8-4.2,1.7
					c-1.6,1.3-2.2,3.4-4.3,4.2c-0.6,0.2-0.3,1.2,0.3,1c1.4-0.6,2.2-1.5,3.2-2.7c1.8-2.3,4.3-3.4,7.2-3.5c2-0.1,4.1,0.6,5.1,2.6
					c0.6,1.3,0.6,3,0.7,4.4c0,0.6,0.1,1.2,0.1,1.8c-0.6,0.1-1.3,0.3-1.9,0.4c-1.1,0.3-2.1,0.5-3.2,0.9c-2,0.6-3.8,1.3-5.7,2.2
					c-1.2,0.6-2.9,1.7-4.3,1.3c-0.6-0.2-1.2-0.8-1.9-1.1c-1.5-0.6-5.3-0.1-6-1.6c-0.6-1.3,0.7-3,1.7-3.6c1.4-0.8,2.9-1,4.5-0.8
					C122.3,242.5,122.6,241.5,122,241.4L122,241.4z"/>
			</g>
		</g>
		<g>
			<g>
				<path class="st0" d="M125.1,245.5c3.2-1.8,7.7-9.1,9.3-1.8c0.7-0.9,1.4-1.9,2.2-2.8c-2.6,0.3-5,1.2-7.5,2.1
					c-0.4,0.1-5.1,2.4-4.7,2.5c0.6,0.7,1.1,1.4,1.7,2.2c-1,1.7-0.6,1.6,1.1-0.1c0.5-0.4,1.1-0.8,1.6-1.1c1.4-1,2.9-2.2,4.6-2.8
					c2.7-1,1.5-5.4-1.2-4.3c-3.1,1.2-6.5,2.3-9.8,2.8c-1.8,0.2-4.1,0.1-5.6,1.2c-4.3,3.2,1.4,5.7,4.4,5.4c2.8-0.4,2.9-4.9,0-4.5
					c-0.8,0.2-1.7,0.1-2.4-0.2c0.4,0.6,0.7,1.3,1.1,1.9c-1,1-0.9,1.4,0.2,1.1c0.4,0,0.9-0.1,1.3-0.3c1-0.1,2-0.1,2.9-0.2
					c2.9-0.5,6.2-1.8,9-2.8c-0.4-1.4-0.8-2.9-1.2-4.3c-2.9,1.1-5.3,2.9-7.8,4.8c-1.1,0.9-3,1.9-2.8,3.6c0.1,1.1,0.6,1.8,1.7,2.2
					c1.6,0.6,2.9-0.5,4.2-1.2c2.7-1.5,6.2-2.8,9.3-3.2c1.5-0.2,2.5-1.3,2.2-2.8c-0.8-3.9-1.9-6.8-6.4-6.6c-1.6,0.1-3.5,0.6-4.9,1.4
					c-1.8,1.2-2.6,3.2-4.6,4.3C120.2,243,122.5,246.9,125.1,245.5L125.1,245.5z"/>
			</g>
		</g>
		<g>
			<g>
				<path class="st0" d="M165.5,241.6c-0.2-0.5-0.5-0.9-0.8-1.3c-0.2,0.2-0.5,0.5-0.7,0.7c0.2,0.2,0.4,0.4,0.7,0.6
					c0.3,0.5,1.2,0.1,0.9-0.5c-1.4-2.3-3.9-1.7-6.2-1.6c-0.3,0-0.6,0.3-0.5,0.6c0.7,1.8,0,3.6,2.2,3.8c3.9,0.5,7.7,0.8,11.6,1.8
					c0.3,0.1,0.6-0.2,0.6-0.5c0.3-4.4-5.4-3.7-8.4-3.9c-0.6,0-0.6,1,0,1c1.9,0.1,7.5-0.2,7.4,2.9c0.2-0.2,0.4-0.3,0.6-0.5
					c-2.3-0.6-4.7-1.1-7.1-1.4c-1.1-0.2-2.7,0-3.8-0.4c-1.6-0.6-1.6-1.8-2.2-3.1c-0.2,0.2-0.3,0.4-0.5,0.6c1.7,0,4.2-0.8,5.3,1.1
					c0.3-0.2,0.6-0.3,0.9-0.5c-0.4-0.6-0.3-0.6-1-0.9c-0.4-0.2-1,0.2-0.7,0.7c0.3,0.4,0.6,0.8,0.8,1.3
					C164.9,242.7,165.8,242.2,165.5,241.6L165.5,241.6z"/>
			</g>
		</g>
		<g>
			<g>
				<path class="st0" d="M160.3,240.1c-0.2-0.2-0.3-0.4-0.5-0.6c-0.3-0.6-1.1-0.1-0.9,0.5c0.6,1.2,0.3,2.4,0.7,3.6
					c0.1,0.3,0.4,0.4,0.7,0.3c1.3-0.6,3.4-0.4,4.7,0c0.6,0.2,0.9-0.8,0.3-1c-1.7-0.5-3.9-0.7-5.5,0.1c0.2,0.1,0.5,0.2,0.7,0.3
					c-0.2-0.7-0.1-1.4-0.2-2.1c-0.1-0.6-0.3-1.2-0.6-1.8c-0.3,0.2-0.6,0.3-0.9,0.5c0.2,0.4,0.5,0.7,0.9,1
					C160.3,241.3,160.8,240.5,160.3,240.1L160.3,240.1z"/>
			</g>
		</g>
		<g>
			<g>
				<path class="st0" d="M159.8,240.2c-0.3,1.7,0.6,2.6,2.3,2.9c1.6,0.3,3.3,0.3,5,0.6c1.7,0.4,3.3,0.8,5,1.3
					c0.6,0.2,0.8-0.6,0.4-0.9c-1-0.7-2.1-1.5-3.3-1.8c-1.4-0.4-2.8-0.1-4.2-0.5c0,0.3-0.1,0.7-0.1,1c2.2,0.3,4.3,0.7,6.4,1.2
					c0.6,0.2,0.9-0.8,0.3-1c-2.1-0.6-4.3-0.5-6.5-1c-0.5-0.1-3-0.6-3.2-1.1c0.5,0,0.9,0,1.4,0.2c-0.4-0.2-0.8-0.4-1.3-0.6
					c-0.1,0.3-0.2,0.6-0.3,0.9c0.6,0,1.3,0.1,1.9,0.3c0.6,0.1,0.9-0.8,0.3-1c-0.7-0.1-1.4-0.3-2.2-0.3c-0.5,0-0.7,0.7-0.3,0.9
					c0.7,0.3,3,1.9,3.3,0.2c0.3-1.9-2.9-1.8-3.9-1.6c-0.2,0-0.3,0.2-0.3,0.3c-1,3,9.2,3.3,10.7,3.7c0.1-0.3,0.2-0.6,0.3-1
					c-2.2-0.6-4.4-1-6.7-1.2c-0.6-0.1-0.6,0.8-0.1,1c1,0.3,1.8,0.3,2.8,0.4c1.8,0.2,3.1,0.8,4.5,1.8c0.1-0.3,0.3-0.6,0.4-0.9
					c-1.8-0.5-3.6-1-5.4-1.4c-1.2-0.2-6.4-0.5-6.1-2.3C160.9,239.9,160,239.6,159.8,240.2L159.8,240.2z"/>
			</g>
		</g>
		<g>
			<g>
				<path class="st0" d="M173.7,244.6c0,0.2,0,0.4-0.1,0.5c-0.1,0.3,0,0.7,0.3,0.7c3.6,0.7,6.8,3.9,9.6,6c0.3,0.2,0.9,0.1,0.9-0.4
					c-0.2-1.7-0.5-3.3-0.9-5c-0.3,0.1-0.6,0.2-1,0.3c0.2,0.6,0.4,1.3,0.6,1.9c0.2,0.5,1,0.5,1-0.1c-0.1-2.4-0.9-3.7-3.2-4.4
					c-2.3-0.8-5.2-0.9-7.5,0.1c-0.4,0.2-0.2,0.8,0.1,0.9c3.3,1.3,6.5,2.7,9,5.3c0.3,0.3,0.9,0.1,0.9-0.4c0-1.7,0.2-4.1-1.7-4.9
					c-1.9-0.9-5-1.4-7.1-1.1c-0.4,0.1-0.7,0.7-0.3,0.9c1.1,0.6,2.3,0.8,3.4,1.2c1.6,0.6,3,1.5,4.3,2.6c0.2,0.2,0.6,0.2,0.8-0.1
					c0.5-0.9-0.4-1.6-1-2.2c-1-0.9-2-1.3-3.3-1c-0.5,0.1-0.5,0.9,0,1c1,0.1,3.2,0,3.7,1c0.3,0.6,1.2,0.1,0.9-0.5
					c-0.8-1.5-2.9-1.3-4.3-1.5c0,0.3,0,0.6,0,1c1.1-0.1,1.9,0.3,2.5,1c0.2,0.3,0.5,0.5,0.7,0.8c0.3,0,0.5-0.1,0.8-0.1
					c-1.1-0.9-2.2-1.7-3.5-2.3c-1.4-0.7-3-0.8-4.4-1.6c-0.1,0.3-0.2,0.6-0.3,0.9c1.6-0.2,3.1,0.2,4.7,0.5c1.1,0.2,2.3,0.3,2.9,1.6
					c0.4,0.8,0.2,2.1,0.2,2.9c0.3-0.1,0.6-0.2,0.9-0.4c-2.6-2.7-6-4.2-9.4-5.6c0,0.3,0.1,0.6,0.1,0.9c1.6-0.7,3.6-0.6,5.2-0.3
					c2.3,0.4,3.8,1.3,3.9,3.8c0.3,0,0.7-0.1,1-0.1c-0.2-0.6-0.4-1.3-0.6-1.9c-0.2-0.6-1.1-0.4-1,0.3c0.4,1.6,0.6,3.1,0.8,4.7
					c0.3-0.1,0.6-0.2,0.9-0.4c-2.9-2.3-6.3-5.5-10-6.3c0.1,0.2,0.2,0.5,0.3,0.7c0.2-0.5,0.3-0.5,0.2-1
					C174.6,244,173.6,244,173.7,244.6L173.7,244.6z"/>
			</g>
		</g>
		<g>
			<g>
				<path class="st0" d="M183.5,252.2c1.3,1.3,2.7,2.6,4,4c1.4,1.5,1.1,3.1,1.7,4.9c0.3-0.1,0.6-0.3,0.9-0.4c-1-2.1-2.2-4.1-3.6-5.9
					c-0.3,0.2-0.5,0.4-0.8,0.6c1.1,1.1,2.2,2.2,3.2,3.5c0.4,0.5,1.1-0.2,0.7-0.7c-1-1.2-2.1-2.4-3.2-3.5c-0.4-0.4-1.1,0.1-0.8,0.6
					c1.4,1.9,2.6,3.9,3.6,5.9c0.2,0.5,1.1,0.2,0.9-0.4c-0.5-1.6-0.3-3.1-1.3-4.5c-1.3-1.8-3.2-3.3-4.7-4.8
					C183.7,251,183,251.7,183.5,252.2L183.5,252.2z"/>
			</g>
		</g>
		<g>
			<g>
				<path class="st0" d="M189.5,256.9c-0.1-1.3-0.7-2.4-1.6-3.4c-1-1.1-1.9-1.7-3.3-2.1c-0.4-0.1-0.9,0.5-0.5,0.8
					c0.8,0.7,1.7,1.4,2.5,2c0.5,0.4,0.9,0.9,1.5,0.8c0.2,0,0.3-0.2,0.3-0.3c0.2-0.8-0.7-1.6-1.2-2.2c-0.4-0.5-1.1,0.2-0.7,0.7
					c0.2,0.2,1,1,0.9,1.2c0.1-0.1,0.2-0.2,0.3-0.3c-0.1,0-1.3-1.1-1.4-1.2c-0.5-0.4-1.1-0.9-1.6-1.3c-0.2,0.3-0.3,0.6-0.5,0.8
					c1.2,0.3,1.9,0.7,2.7,1.6c0.7,0.8,1.4,1.8,1.5,2.9C188.5,257.5,189.5,257.5,189.5,256.9L189.5,256.9z"/>
			</g>
		</g>
		<g>
			<g>
				<path class="st0" d="M182.4,249.5c0.6,0,0.6-1,0-1C181.8,248.5,181.8,249.5,182.4,249.5L182.4,249.5z"/>
			</g>
		</g>
		<g class="st1">
			<g>
				<path class="st2" d="M175.9,244.7c1.7-0.2,3.5-0.3,5.1,0.3c1.8,0.8,2.8,2.5,2.8,4.5c0,0.6,1,0.6,1,0c0-1.9-0.8-3.6-2.3-4.8
					c-1.9-1.4-4.4-1.3-6.6-1.1C175.2,243.7,175.2,244.7,175.9,244.7L175.9,244.7z"/>
			</g>
		</g>
		<g class="st1">
			<g>
				<path class="st2" d="M185.6,252.6c3.2,0.9,3.4,4.7,3.5,7.4c0,0.6,1,0.6,1,0c0-3.3-0.5-7.3-4.2-8.4
					C185.3,251.4,185,252.4,185.6,252.6L185.6,252.6z"/>
			</g>
		</g>
		<g class="st1">
			<g>
				<path class="st2" d="M167,242.4c0.9-0.1,1.8-0.1,2.7,0.1c0.5,0.1,2.4,0.5,2.5,1.1c0.1,0.6,1.1,0.6,1,0c-0.1-1.1-1.2-1.4-2.1-1.7
					c-1.3-0.5-2.7-0.6-4.1-0.5C166.3,241.5,166.3,242.5,167,242.4L167,242.4z"/>
			</g>
		</g>
		<g class="st1">
			<g>
				<path class="st2" d="M163,240.3c0.2,0,0.5,0,0.7,0c0.2,0,0.3,0,0.4,0.1c0.3,0.3,0.6,0.6,0.9,0.9c0.5,0.4,1.2-0.3,0.7-0.7
					c-0.4-0.3-0.7-0.8-1.2-1.1c-0.4-0.3-1.1-0.2-1.6-0.2C162.4,239.3,162.4,240.3,163,240.3L163,240.3z"/>
			</g>
		</g>
		<g>
			<g>
				<path class="st3" d="M97.6,271.6c-0.2,0.6-0.4,0.9-0.8,1.3c1,0.3,2,0.5,3,0.8c-0.2-0.9,0.7-1.6,1.3-2.2c0.8-0.7,1.6-1.4,2.5-2.1
					c0.8-0.6,0.6-1.9,0-2.5c-0.7-0.8-1.8-0.6-2.5,0c-2.5,2-5.4,4.3-4.6,7.8c0.3,1.4,2.1,1.6,3,0.8c0.9-0.8,1.4-1.7,1.8-2.9
					C101.7,270.3,98.2,269.4,97.6,271.6L97.6,271.6z"/>
			</g>
		</g>
		<g>
			<g>
				<path class="st3" d="M104.1,268.2c0.5-0.2,0.9-0.6,1.2-1c0.4-0.5-0.1-1.4-0.8-1.4c-0.7,0.1-1.5,0.2-2.2,0.4
					c-1.1,0.2-0.7,2,0.5,1.7c0.6-0.1,1.2-0.2,1.7-0.3c-0.3-0.5-0.5-0.9-0.8-1.4c-0.1,0.2-0.4,0.3-0.6,0.4c-0.4,0.2-0.5,0.8-0.3,1.2
					C103.1,268.3,103.6,268.4,104.1,268.2L104.1,268.2z"/>
			</g>
		</g>
		<g>
			<g>
				<path class="st3" d="M100.5,267.1c-1,0.3-1.7,0.7-2.3,1.6c-0.4,0.5,0.5,1,0.9,0.5c0.6-0.8,1.5-0.6,1.9-1.6
					c0.2-0.4-0.3-0.7-0.6-0.6c-1.8,0.3-3.2,2.2-4.1,3.7c-1.2,1.9-1.8,4.1-2.3,6.3c-0.1,0.6,0.8,0.9,1,0.3c0.4-1.7,0.9-3.4,1.6-5
					c0.8-1.5,2.2-4,4-4.3c-0.2-0.2-0.4-0.4-0.6-0.6c-0.1,0.3-1.5,0.9-1.8,1.3c0.3,0.2,0.6,0.3,0.9,0.5c0.4-0.6,1-1,1.7-1.1
					C101.4,267.9,101.1,266.9,100.5,267.1L100.5,267.1z"/>
			</g>
		</g>
		<g>
			<g>
				<path class="st3" d="M101.4,266.9c-0.8-0.3-1.6,0-2.1,0.7c-0.3,0.4-0.6,0.6-1,0.8c-0.3,0.2-0.6,0.4-0.8,0.8
					c-0.3,0.6,0.5,1.1,0.9,0.5c0.3-0.4,0.9-0.6,1.3-0.9c0.5-0.5,0.7-1.2,1.6-1C101.7,268,102,267.1,101.4,266.9L101.4,266.9z"/>
			</g>
		</g>
		<g>
			<g>
				<path class="st3" d="M98.6,269.3c0-0.3,0.3-0.4,0.5-0.5c0.6-0.3,0.1-1.2-0.5-0.9c-0.4,0.3-0.8,0.6-0.9,1.1
					C97.5,269.7,98.4,270,98.6,269.3L98.6,269.3z"/>
			</g>
		</g>
		<g>
			<g>
				<path class="st3" d="M101.6,270.2c-0.7,2.8-2.2,6.4-1,9.2c1.2,2.7,5,3.6,7.5,4.4c0.6,0.2,0.9-0.8,0.3-1
					c-2.4-0.7-6.4-1.7-7.1-4.4c-0.6-2.5,0.7-5.6,1.3-8C102.8,269.8,101.8,269.5,101.6,270.2L101.6,270.2z"/>
			</g>
		</g>
		<g>
			<g>
				<path class="st3" d="M106.7,282.6c-2.5,0.1-5.6-0.6-7.9-1.6c-1.8-0.8-3.6-2.1-3.2-4.4c0.1-0.9,1-1.9,1.2-2.9
					c0.1-0.6-0.8-0.9-1-0.3c-0.3,1.4-1.5,2.7-1.3,4.2c0.1,1.2,1,2.3,1.9,3c2.6,2.1,7,3,10.3,2.9
					C107.3,283.6,107.3,282.6,106.7,282.6L106.7,282.6z"/>
			</g>
		</g>
		<g>
			<g>
				<path class="st3" d="M95.6,275.1c0.2,1.2-0.7,2.3-0.2,3.5c0.2,0.6,0.7,1.1,1.2,1.5c2,1.5,4.8,2.3,7.1,3c0.1-0.3,0.2-0.6,0.3-1
					c-1.4-0.3-2.3-1.3-2.9-2.6c-0.6-1.3-1.2-3.2-0.6-4.5c-0.3,0-0.6,0-0.9,0c0.1,0.3,0.1,0.7,0.2,1c0.3,0,0.7,0,1,0c0-0.5,0-1,0-1.5
					c0-0.6-1-0.6-1,0c0,0.5,0,1,0,1.5c0,0.6,1,0.6,1,0c0-0.6-0.1-1-0.3-1.5c-0.1-0.3-0.7-0.3-0.9,0c-1.4,3,0.9,7.8,4.2,8.6
					c0.6,0.1,0.9-0.8,0.3-1c-2.1-0.6-4.2-1.3-6.1-2.4c-1.2-0.7-1.7-1.4-1.4-2.8c0.1-0.8,0.3-1.3,0.2-2
					C96.5,274.2,95.5,274.5,95.6,275.1L95.6,275.1z"/>
			</g>
		</g>
		<g>
			<g>
				<path class="st3" d="M96.1,275.1c0.1,0.7-0.2,1.4-0.2,2.2c0.1,0.7,0.4,1.3,0.9,1.8c0.9,1.1,2.3,1.7,3.5,2.3
					c0.5,0.2,1-0.3,0.6-0.8c-0.7-0.8-1.6-1.2-2.4-1.8c-0.8-0.6-1.1-1.3-0.6-2.3c0.3-0.6,0.5-0.8,0.5-1.5c-0.3,0.1-0.6,0.2-0.9,0.3
					c0.4,0.6,1,0.9,1.4,1.4c0.4,0.5,0.5,2.1,0.3,2.8c0.1-0.1,0.2-0.2,0.3-0.3c0.2,0-0.8-1.7-0.8-1.7c-0.1-0.1-0.2-0.3-0.3-0.4
					c-0.3-0.2-0.3-0.2-0.2,0.1c0.1,0.3,0.1,0.6,0.1,0.9c-0.3-0.1-0.4-0.3-0.2-0.8c0.4-0.5-0.3-1.2-0.7-0.7c-0.7,0.9-0.3,2.8,1.1,2.7
					c1.3-0.1,0.8-2.8,0.2-3.4c-1-1-1.7,0.6-1.4,1.4c0.2,0.4,0.5,0.7,0.7,1.1c0.2,0.3,0.3,0.7,0.5,1.1c0.3,0.5,0.6,0.8,1.2,0.7
					c0.2,0,0.3-0.2,0.3-0.3c0.2-0.8,0.2-2.1,0.1-2.9c-0.2-1-1.3-1.3-1.9-2.1c-0.3-0.4-1-0.3-0.9,0.3c0.1,0.8-0.8,1.4-0.9,2.2
					c0,0.6,0.2,1.1,0.5,1.5c0.8,1.1,2.2,1.5,3.1,2.5c0.2-0.3,0.4-0.5,0.6-0.8c-1.2-0.5-2.4-1.1-3.2-2.1c-0.6-0.7-0.7-1.4-0.6-2.3
					c0.1-0.5,0.1-0.9,0-1.3C97,274.2,96,274.5,96.1,275.1L96.1,275.1z"/>
			</g>
		</g>
		<g>
			<g>
				<path class="st3" d="M97.4,277.1c0.6,0,0.6-1,0-1C96.7,276.1,96.7,277.1,97.4,277.1L97.4,277.1z"/>
			</g>
		</g>
		<g>
			<g>
				<path class="st3" d="M97.4,276.6c0.6,0,0.6-1,0-1C96.7,275.6,96.7,276.6,97.4,276.6L97.4,276.6z"/>
			</g>
		</g>
		<g class="st4">
			<g>
				<path class="st5" d="M104.4,266.2c-2.5,3.2-5.1,8.1-4.3,12.3c0.8,3.9,4.7,5.2,8.3,5.3c0.6,0,0.6-1,0-1c-1.6,0-3-0.5-4.5-1.1
					c-2.2-0.9-3-2.8-2.9-5.1c0.1-3.5,2-7,4.1-9.7C105.4,266.4,104.7,265.7,104.4,266.2L104.4,266.2z"/>
			</g>
		</g>
		<g class="st4">
			<g>
				<path class="st5" d="M100.1,278.5c0,1,0.3,1.9,0.9,2.7c0.3,0.4,0.6,0.7,0.9,1c0.4,0.3,1.1,0.6,1.3,1c0.2-0.2,0.5-0.5,0.7-0.7
					c-0.9-0.6-1.9-1-3.1-1.1c-0.6-0.1-0.6,0.9,0,1c0.9,0.1,1.8,0.4,2.6,0.9c0.4,0.3,0.9-0.3,0.7-0.7c-0.4-0.7-1.3-1-1.8-1.5
					c-0.8-0.7-1.2-1.7-1.3-2.7C101,277.9,100,277.9,100.1,278.5L100.1,278.5z"/>
			</g>
		</g>
		<g class="st4">
			<g>
				<path class="st5" d="M102.1,281.3c-0.2-0.3-0.3-0.8-0.4-1.1c-0.1-0.4-0.2-0.7-0.4-1.1c-0.2-0.5-1-0.4-1,0.1c0,0.5,0,1,0.1,1.6
					c0,0.3,0.3,0.9,0.2,1.2c0.1-0.1,0.2-0.2,0.2-0.3c0,0-0.1,0-0.1,0.1c0.1,0,0.3,0,0.4-0.1c0,0,0.1-2.8,0.1-3c0-0.6-1-0.6-1,0
					c0,0.9,0,1.8-0.1,2.7c0,0.5,0,1.2,0.7,1.3c0.5,0.1,0.8-0.3,0.8-0.8c0-0.4-0.2-0.8-0.2-1.2c-0.1-0.5-0.1-1-0.1-1.5
					c-0.3,0-0.7,0.1-1,0.1c0.3,0.8,0.5,1.9,1,2.6C101.7,282.6,102.4,281.8,102.1,281.3L102.1,281.3z"/>
			</g>
		</g>
		<g class="st4">
			<g>
				<path class="st5" d="M100,276c-0.1,1.2-0.2,2.5-0.2,3.7c0,0.9-0.1,1.7,0.3,2.5c0.3,0.6,1.2,0.1,0.9-0.5c-0.4-0.8-0.2-2-0.2-2.9
					c0-0.9,0.1-1.9,0.2-2.8C101.1,275.4,100.1,275.4,100,276L100,276z"/>
			</g>
		</g>
		<g class="st4">
			<g>
				<path class="st5" d="M101.4,271.6c-1.1,3.1-3.3,7.2-1.2,10.3c0.4,0.5,1.2,0,0.9-0.5c-1.9-2.8,0.2-6.8,1.3-9.5
					C102.6,271.3,101.6,271,101.4,271.6L101.4,271.6z"/>
			</g>
		</g>
		<g class="st4">
			<g>
				<path class="st5" d="M100.3,274.2c0.1,1.8-1.5,3-1.6,4.8c-0.1,1.2,0.5,2.3,1.3,3.2c0.4,0.5,1.1-0.2,0.7-0.7
					c-1.3-1.6-1-3-0.1-4.7c0.5-0.9,0.8-1.7,0.7-2.7C101.2,273.6,100.2,273.6,100.3,274.2L100.3,274.2z"/>
			</g>
		</g>
		<g>
			<g>
				<path class="st6" d="M105.9,265.3c0.4-0.9,1.1-1.5,1.8-2.1c0.8-0.7,1.6-1.4,2.4-2.1c0.5-0.4,0-1.3-0.5-0.9
					c-0.9,0.7-1.8,1.4-2.6,2.2c-0.7,0.7-1.5,1.4-1.9,2.3C104.7,265.4,105.6,265.9,105.9,265.3L105.9,265.3z"/>
			</g>
		</g>
		<g class="st4">
			<g>
				<path class="st6" d="M123.5,250.8c2.8-1.1,5.2-3,8.1-4c1.5-0.5,3.1-0.9,4.7-1.1c0.8-0.1,1.8,0.1,2.5-0.4
					c0.5-0.3,0.2-1.1-0.4-0.9c-3.6,0.9-7.4,1.6-10.7,3.3c-0.6,0.3-0.1,1.2,0.5,0.9c3.2-1.7,6.9-2.3,10.4-3.2
					c-0.1-0.3-0.3-0.6-0.4-0.9c-0.7,0.5-2.1,0.3-3,0.4c-1.5,0.2-3,0.6-4.4,1.1c-2.7,1-5,2.8-7.7,3.8
					C122.6,250.1,122.9,251,123.5,250.8L123.5,250.8z"/>
			</g>
		</g>
		<g class="st4">
			<g>
				<path class="st6" d="M158.9,240.9c-0.1,1.1,0.3,2.2,1,3.1c0.3,0.4,1,0,0.8-0.5c-0.2-0.6-0.5-1.2-0.7-1.8c-0.2-0.6-1.2-0.3-1,0.3
					c0.2,0.6,0.5,1.2,0.7,1.8c0.3-0.2,0.6-0.3,0.8-0.5c-0.6-0.7-0.8-1.5-0.7-2.4C160,240.2,159,240.3,158.9,240.9L158.9,240.9z"/>
			</g>
		</g>
		<g class="st4">
			<g>
				<path class="st6" d="M158.8,239.7c-0.1,0.6,0,1.2,0.4,1.7c0.4,0.5,1.1-0.2,0.7-0.7c-0.2-0.2-0.2-0.4-0.2-0.7
					C159.9,239.3,158.9,239,158.8,239.7L158.8,239.7z"/>
			</g>
		</g>
		<g>
			<g>
				<path class="st7" d="M110.2,254c0.6,0,0.6,0.5,0.5-0.3c-0.1-0.6-0.7-1-1.3-1c-1.6-0.1-2,1.4-2.7,2.5c0.8,0.2,1.7,0.5,2.5,0.7
					c0-4.4,7.8-4.3,10.5-3.6c-0.1-0.8-0.2-1.6-0.3-2.5c-3.5,1.7-7,7.9-11.3,7.1c0.3,0.3,0.6,0.6,0.9,0.9c0-0.2,0-0.5,0-0.7
					c-0.9,0-1.8,0-2.7,0c-0.1,0.4-0.1,0.8-0.2,1.3c-0.4,1.4,1.8,2.4,2.5,1c0-0.1,0.1-0.2,0.1-0.3c0.7-1.6-1.6-2.9-2.3-1.4
					c0,0.1-0.1,0.2-0.1,0.3c0.8,0.3,1.6,0.7,2.5,1c0.2-0.9,0.3-1.1,0.3-2c0-1.7-2.7-1.7-2.7,0c0,0.5-0.1,1,0.1,1.5
					c0.1,0.4,0.5,0.9,0.9,0.9c6,1.1,8.8-5.2,13.4-7.4c1.1-0.5,0.7-2.2-0.3-2.5c-4.6-1.2-13.9-0.4-13.9,6.2c0,1.3,1.8,1.8,2.5,0.7
					c0,0.1,0.7-1.2,0.4-1.2c-0.4-0.3-0.9-0.7-1.3-1c0.3,1.3,0.5,2.3,2.1,2.2C111.9,256.6,111.9,253.9,110.2,254L110.2,254z"/>
			</g>
		</g>
		<g>
			<g>
				<path class="st7" d="M109.5,256.2c-0.1,0-0.3,0-0.4,0c0.1,0.3,0.2,0.6,0.3,0.9c1.3-0.6,2.7-1.1,3.9-2c1-0.7,1.8-2.1,2.9-2.6
					c0.5-0.2,0.2-0.9-0.3-0.9c-1.7-0.1-3.8,1.1-5.4,1.6c-0.4,0.1-0.5,0.9,0,1c1.5,0.3,2.7,0,4.2-0.7c-0.2-0.3-0.3-0.6-0.5-0.9
					c-1.1,0.8-2.3,1.7-3.5,2.5c-0.4,0.3-0.3,1,0.3,0.9c1.6-0.1,3.5-1.2,3.5-3c0-0.3-0.2-0.5-0.5-0.5c-1.2,0.1-2.3,1.2-3.1,1.9
					c-0.3,0.3-0.1,0.9,0.4,0.9c1-0.1,1.5-0.3,2.1-1.1c0.2-0.3,0.1-0.9-0.4-0.9c-0.9,0.1-0.8,0-1.6,0.4c-0.5,0.3-0.1,1,0.4,0.9
					c2.1-0.3,4.1-0.8,6.1-1.4c1.6-0.5,2.9-1.7,4.6-1.9c0-0.3-0.1-0.7-0.1-1c-0.3,0.1-0.6,0.2-0.9,0.2c0.2,0.2,0.4,0.3,0.6,0.5
					c0-0.2,0-0.5,0-0.7c0-0.6-1-0.6-1,0c0,0.2,0,0.5,0,0.7c0,0.3,0.3,0.6,0.6,0.5c0.3-0.1,0.6-0.2,0.9-0.2c0.5-0.1,0.4-1-0.1-1
					c-1.6,0.1-2.5,0.9-3.9,1.6c-2.1,1-4.7,1.4-6.9,1.7c0.1,0.3,0.3,0.6,0.4,0.9c0.4-0.1,0.7-0.2,1.1-0.3c-0.1-0.3-0.2-0.6-0.4-0.9
					c-0.5,0.3-0.9,0.5-1.4,0.8c0.1,0.3,0.2,0.6,0.4,0.9c0.5-0.5,1.1-1,1.7-1.3c-0.4-0.9-1.2-0.5-2.3,1.2c0.1,0.3,0.2,0.6,0.3,0.9
					c1.2-0.8,2.3-1.6,3.5-2.5c0.5-0.4,0.1-1.1-0.5-0.9c-1.1,0.6-2.2,0.8-3.4,0.6c0,0.3,0,0.6,0,1c1.4-0.5,3.6-1.7,5.1-1.6
					c-0.1-0.3-0.2-0.6-0.3-0.9c-1.2,0.5-1.8,1.8-2.9,2.6c-1.2,0.8-2.5,1.4-3.9,2c-0.5,0.2-0.2,0.9,0.3,0.9c0.1,0,0.3,0,0.4,0
					C110.1,257.2,110.1,256.2,109.5,256.2L109.5,256.2z"/>
			</g>
		</g>
		<g>
			<g>
				<path class="st7" d="M159.3,242.7c-0.7-2.4-1.1-4.5-3.2-6c-2.3-1.6-4.6-0.8-7.2-1.2c-0.1,0.6-0.2,1.2-0.2,1.8c0.7,0,1.4,0,2.1,0
					c1.2,0,1.2-1.8,0-1.8c-3.3,0-6.8-0.1-9.6,2c-2.4,1.7-1.8,4-1.8,6.7c0,0.5,0.4,0.9,0.9,0.9c3.1-0.1,6.2-0.9,9.3-1
					c2.6-0.1,5.3,0.2,7.9,0c0.5,0,1.1-0.6,0.9-1.1c-1-3-3.6-5.8-6.8-6.1c-3.4-0.4-8.1-0.2-10.4,2.9c-5.5,7.2,12.3,2.4,14.1,3.1
					c0.6,0.2,1.3-0.5,1.1-1.1c-1.7-4.7-12.9-5-15.1-0.6c-0.3,0.7,0.1,1.3,0.8,1.4c3.6,0.4,7.6,0,11.2-0.7c0.8-0.2,0.9-1.6,0-1.7
					c-3.1-0.5-5.9-0.9-9-0.3c-1.1,0.2-0.7,2,0.5,1.7c2.8-0.6,5.2-0.1,8,0.3c0-0.6,0-1.2,0-1.7c-3.4,0.6-7.3,1-10.7,0.6
					c0.3,0.5,0.5,0.9,0.8,1.4c1.4-2.7,10.6-2.9,11.8,0.2c0.4-0.4,0.7-0.7,1.1-1.1c-3-1.2-7.6,0.6-10.7,0.9c-0.8,0.1-1.5,0.2-2.3,0.1
					c0.5-0.8,0.9-1.6,1.4-2.5c1-0.8,3.6-0.8,4.9-0.9c3.4-0.2,6.5,1.3,7.7,4.8c0.3-0.4,0.6-0.8,0.9-1.1c-2.7,0.1-5.3-0.1-7.9,0
					c-3.1,0.1-6.2,0.9-9.3,1c0.3,0.3,0.6,0.6,0.9,0.9c0-3.1-0.3-4.9,2.9-6.1c2.2-0.8,4.4-0.7,6.7-0.7c0-0.6,0-1.2,0-1.8
					c-0.7,0-1.4,0.1-2.1,0c-1,0-1.3,1.6-0.2,1.8c1.1,0.2,2.1,0.2,3.3,0.2c2,0.1,2.9,0.2,4.1,1.9c1,1.4,1.3,2.3,1.7,3.9
					C157.8,244.3,159.6,243.8,159.3,242.7L159.3,242.7z"/>
			</g>
		</g>
		<g>
			<g>
				<path class="st7" d="M155.5,236.1c-0.2,0-0.5-0.1-0.7-0.1c-0.3-0.1-0.6,0-0.9-0.1c-0.6-0.2-1-0.5-1.7-0.6c-1.2,0-1.2,1.8,0,1.8
					c0.3,0,0.5,0.2,0.8,0.3c0.3,0.1,0.6,0.2,0.9,0.3c0.5,0.1,1.1,0.2,1.7,0.2C156.7,237.8,156.7,236,155.5,236.1L155.5,236.1z"/>
			</g>
		</g>
		<g>
			<g>
				<path class="st7" d="M154.4,237.4c1.2,0,1.2-1.8,0-1.8C153.2,235.6,153.2,237.4,154.4,237.4L154.4,237.4z"/>
			</g>
		</g>
		<g>
			<g>
				<path class="st8" d="M108.7,259.7c1.4-0.2,2.5,0,3.5-0.9c1.2-1,2.3-2,3.5-3.1c0.5-0.4-0.2-1.1-0.7-0.7c-1,0.9-2.1,1.9-3.1,2.8
					c-1,0.8-2.2,0.7-3.5,1C107.8,258.9,108.1,259.8,108.7,259.7L108.7,259.7z"/>
			</g>
		</g>
		<g>
			<g>
				<path class="st8" d="M139.5,239.9c0,1.6,0.1,3.2,0.2,4.8c0.1,0.6,1.1,0.6,1,0c-0.1-1.6-0.2-3.2-0.2-4.8
					C140.5,239.2,139.5,239.2,139.5,239.9L139.5,239.9z"/>
			</g>
		</g>
		<g>
			<g>
				<path class="st8" d="M140,238.9c0,0.2-0.1,0.3-0.3,0.4c-0.6,0.2-0.4,1.2,0.3,1c0.5-0.2,0.9-0.5,1-1.1
					C141,238.5,140.1,238.3,140,238.9L140,238.9z"/>
			</g>
		</g>
		<g>
			<g>
				<path class="st8" d="M140.3,237.9c0,0.3-0.2,0.5-0.3,0.8c-0.4,0.5,0.5,1,0.9,0.5c0.3-0.4,0.4-0.8,0.5-1.3
					C141.4,237.2,140.4,237.2,140.3,237.9L140.3,237.9z"/>
			</g>
		</g>
		<g>
			<g>
				<path class="st8" d="M141.6,237.1c-0.6,0.4-1.1,0.9-1.4,1.6c-0.1,0.1,0.2,0.2,0.2,0.1c0.3-0.6,0.7-1.1,1.3-1.5
					C141.9,237.2,141.7,237,141.6,237.1L141.6,237.1z"/>
			</g>
		</g>
		<g>
			<g>
				<path class="st8" d="M141.4,237.9c0-0.2,0-0.3,0.2-0.4c0.2-0.1,0.2-0.1,0.4-0.1c0-0.1,0-0.2-0.1-0.2c-0.5,0.2-0.5,0.5-0.9,0.8
					c0.1,0.1,0.1,0.1,0.2,0.2c0.2-0.4,0.5-0.8,0.9-1.1c-0.1,0-0.1-0.1-0.2-0.1c0,0.2-0.4,0.5-0.6,0.7c-0.2,0.2-0.3,0.4-0.4,0.6
					c-0.1,0.1,0.1,0.3,0.2,0.1c0.2-0.3,0.4-0.6,0.6-0.9c0.2-0.2,0.3-0.3,0.4-0.5c0-0.1-0.1-0.2-0.2-0.1c-0.4,0.3-0.8,0.7-1,1.2
					c-0.1,0.1,0.1,0.3,0.2,0.2c0.3-0.3,0.3-0.6,0.7-0.8c0.2-0.1,0.1-0.3-0.1-0.2c-0.5,0.1-0.9,0.2-0.8,0.8
					C141.1,238.1,141.4,238.1,141.4,237.9L141.4,237.9z"/>
			</g>
		</g>
		<g>
			<g>
				<path class="st8" d="M142.2,236.9c-0.4,0.5-0.8,0.9-1.1,1.4c-0.3,0.6-0.5,1.2-0.7,1.8c0,0.2,0.2,0.2,0.2,0.1
					c0.2-0.6,0.4-1.2,0.7-1.8c0.3-0.5,0.7-0.9,1.1-1.4C142.4,237,142.3,236.8,142.2,236.9L142.2,236.9z"/>
			</g>
		</g>
		<g>
			<g>
				<path class="st8" d="M108.6,258.8c-0.5-0.1-1,0.4-1.4,0.8c-0.1,0.1,0,0.3,0.2,0.2c0.3-0.2,0.7-0.4,1.1-0.6
					c0.1-0.1,0.1-0.3-0.1-0.2c-0.4,0.2-0.8,0.3-1.2,0.6c0.1,0.1,0.1,0.1,0.2,0.2c0.2-0.3,0.7-0.8,1.1-0.7
					C108.7,259.1,108.8,258.9,108.6,258.8L108.6,258.8z"/>
			</g>
		</g>
		<g>
			<g>
				<path class="st8" d="M115.3,255.1c0.6-0.1,1.1-0.2,1.7-0.4c0.2,0,0.1-0.3-0.1-0.2c-0.6,0.2-1.1,0.3-1.7,0.4
					C115.1,254.9,115.2,255.1,115.3,255.1L115.3,255.1z"/>
			</g>
		</g>
		<g>
			<g>
				<path class="st8" d="M115.5,255.3c0.3,0,0.6-0.1,0.9-0.1c0-0.1,0-0.2-0.1-0.2c-0.3,0.1-0.4,0.3-0.6,0.4
					c-0.1,0.1,0.1,0.3,0.2,0.2c0.1-0.1,0.3-0.3,0.5-0.4c0.2,0,0.1-0.3-0.1-0.2c-0.3,0.1-0.6,0.1-0.8,0.1
					C115.3,255,115.3,255.3,115.5,255.3L115.5,255.3z"/>
			</g>
		</g>
		<g>
			<g>
				<path class="st8" d="M115.2,255.2c0.6-0.5,1.4-0.7,2.1-0.7c0-0.1,0-0.2,0-0.3c-0.2,0-0.4,0.1-0.6,0.2c-0.3,0.1-0.6,0.1-0.9,0.2
					c-0.1,0.1-0.1,0.3,0.1,0.2c0.3-0.1,0.5-0.2,0.8-0.2c0.2,0,0.4-0.2,0.6-0.2c0.2,0,0.2-0.3,0-0.3c-0.8,0-1.6,0.2-2.3,0.8
					C114.9,255.1,115.1,255.3,115.2,255.2L115.2,255.2z"/>
			</g>
		</g>
		<g>
			<g>
				<path class="st8" d="M115.8,254.9c0.4,0.1,0.7-0.1,1.1-0.3c0.5-0.2,0.9-0.5,1.4-0.7c0.1-0.1,0.1-0.3-0.1-0.2
					c-0.3,0.1-0.7,0.3-1,0.4c-0.4,0.2-0.9,0.5-1.4,0.5C115.6,254.6,115.6,254.9,115.8,254.9L115.8,254.9z"/>
			</g>
		</g>
		<g>
			<g>
				<path class="st8" d="M115.9,254.7c0.9-0.2,1.7-0.5,2.5-0.8c0.2,0,0.1-0.3-0.1-0.2c-0.8,0.3-1.7,0.6-2.5,0.8
					C115.7,254.5,115.8,254.7,115.9,254.7L115.9,254.7z"/>
			</g>
		</g>
		<g>
			<g>
				<path class="st8" d="M115.6,254.9c0.8-0.5,1.8-0.7,2.7-0.9c0.2,0,0.1-0.3-0.1-0.2c-1,0.2-1.9,0.4-2.8,0.9
					C115.4,254.7,115.5,254.9,115.6,254.9L115.6,254.9z"/>
			</g>
		</g>
		<g>
			<g>
				<path class="st8" d="M108.5,258.7c-0.4,0-0.6,0.2-0.9,0.3c-0.3,0.1-0.6,0.3-0.9,0.5c-0.1,0.1,0,0.2,0.1,0.2c0.1,0,0.3,0,0.4-0.1
					c0.1-0.1,0.2-0.3,0.4-0.3c0.2-0.1,0.1-0.3-0.1-0.2c-0.3,0.1-0.4,0.4-0.7,0.4c0,0.1,0.1,0.1,0.1,0.2c0.3-0.2,0.6-0.4,0.9-0.5
					c0.2-0.1,0.4-0.3,0.7-0.3C108.7,259,108.7,258.7,108.5,258.7L108.5,258.7z"/>
			</g>
		</g>
		<g>
			<g>
				<path class="st8" d="M108.3,258.9c0.5-0.1,1.1-0.1,1.6-0.1c0.4,0,0.7,0,1.1-0.2c0.1-0.1,0-0.3-0.1-0.2c-0.5,0.2-1,0.2-1.5,0.2
					c-0.4,0-0.8,0.1-1.1,0.1C108.1,258.7,108.2,259,108.3,258.9L108.3,258.9z"/>
			</g>
		</g>
		<g>
			<g>
				<path class="st8" d="M116.5,254.4c1-0.4,1.9-0.8,2.9-1.2c0.1-0.1,0-0.3-0.1-0.2c-1,0.4-1.9,0.8-2.9,1.2
					C116.3,254.3,116.4,254.5,116.5,254.4L116.5,254.4z"/>
			</g>
		</g>
		<g>
			<g>
				<path class="st9" d="M152.3,236.3c1.2-0.1,2.6,0.4,3.6,1.1c0.9,0.6,1.3,1.7,1.5,2.7c0.2,0.6,1.1,0.4,1-0.3
					c-0.4-1.2-0.9-2.5-1.9-3.2c-1.1-0.8-2.8-1.4-4.2-1.3C151.7,235.3,151.7,236.3,152.3,236.3L152.3,236.3z"/>
			</g>
		</g>
		<g>
			<g>
				<path class="st9" d="M151.3,236.4c2.4-0.1,5,1.6,5.9,3.8c0.3,0.6,1.1,0.1,0.9-0.5c-1.1-2.5-4.1-4.3-6.8-4.3
					C150.6,235.4,150.6,236.4,151.3,236.4L151.3,236.4z"/>
			</g>
		</g>
		<g class="st10">
			<g>
				<path class="st11" d="M126,238.3c3.8-1.7,8.6-3.5,11.7,0.4c0.2-0.2,0.5-0.5,0.7-0.7c-1.5-1.5-3.3-2.5-5.5-2.7
					c-1.3-0.1-2.5,0.1-3.7,0.4c0.2,0-3.1,0.9-2.9,1.1c0,0.3-0.1,0.5-0.1,0.8c2.1-1.3,4.4-1.7,6.8-1.1c0.7,0.2,5,1.5,5,2.2
					c0.3-0.1,0.5-0.3,0.8-0.4c-4.4-2.6-9.7-3.8-14.1-0.5c-0.5,0.4,0,1.3,0.5,0.9c4.1-3.1,9-1.9,13.1,0.5c0.3,0.2,0.7-0.1,0.8-0.4
					c0.1-1.9-3.8-2.5-5.1-3c-2.9-1-5.7-0.6-8.3,1c-0.2,0.2-0.4,0.6-0.1,0.8c0.9,0.7,1.6-0.2,2.5-0.5c3.4-1.2,6.9-1,9.5,1.7
					c0.5,0.5,1.1-0.2,0.7-0.7c-3.4-4.3-8.6-2.5-12.9-0.5C125,237.7,125.5,238.5,126,238.3L126,238.3z"/>
			</g>
		</g>
		<g>
			<g>
				<path class="st12" d="M149.2,257.1c-6.5-0.8-12.9,0.8-18.2,4.6c-4.2,3-1.6,9.1,3.5,8.2c5.4-0.9,14.3-3.7,15.7-9.9
					c0.7-3.1-1.4-5.4-4.3-5.7c-8.1-0.8-15.9,1.2-22.8,5.6c-3.5,2.3-2.4,8.6,2.3,8.4c5.4-0.3,10.2-1.7,14.9-4.3
					c3.2-1.8,2.8-7.6-1.1-8.2c-6.6-1.1-12.9-0.1-18.5,3.9c-3.8,2.7-1.7,10.1,3.5,8.2c4.1-1.5,7.6-3.6,10.8-6.7c2.6-2.6,1-6.3-2-7.5
					c-3.3-1.3-7.2,1.3-9.9,2.9c-3.8,2.2-7.2,4.9-10.4,7.9c2.4,1.8,4.7,3.6,7.1,5.5c2.2-3.9,5.1-6.8,9-9.2c4.2-2.5,1.5-10-3.5-8.2
					c-4.7,1.7-8.8,4.2-12.2,7.8c2.4,1.8,4.7,3.6,7.1,5.5c0.4-0.6,0.9-1.2,1.3-1.8c3.4-4.7-4.4-9.2-7.8-4.5c-0.4,0.6-0.9,1.2-1.3,1.8
					c-3,4.1,3.6,9.1,7.1,5.5c2.4-2.5,5-4.3,8.3-5.5c-1.2-2.7-2.3-5.5-3.5-8.2c-5.1,3.1-9.2,7.2-12.2,12.4c-2.6,4.5,3.4,9,7.1,5.5
					c2-1.9,4.2-3.7,6.5-5.2c0.9-0.6,1.8-1.1,2.7-1.6c0.6-0.3,3.3-1.2,2.3-1.6c-0.7-2.5-1.3-5-2-7.5c-2,2-4.2,3.4-6.8,4.4
					c1.2,2.7,2.3,5.5,3.5,8.2c3.5-2.5,7.2-3.8,11.5-3c-0.4-2.7-0.7-5.5-1.1-8.2c-3.3,1.8-6.6,2.8-10.4,3c0.8,2.8,1.5,5.6,2.3,8.4
					c5.6-3.7,11.6-5,18.2-4.4c-1.4-1.9-2.9-3.8-4.3-5.7c-0.5,2-7.9,3.4-9.4,3.6c1.2,2.7,2.3,5.5,3.5,8.2c4.2-3,8.5-4.1,13.7-3.4
					C154.9,266.8,154.8,257.8,149.2,257.1L149.2,257.1z"/>
			</g>
		</g>
		<g>
			<g>
				<path class="st12" d="M127.3,250.2c-2.8,0.9-5.1,2.3-7.3,4.1c-1.8,1.5-1.7,4.8,0,6.4c1.9,1.7,4.5,1.6,6.4,0
					c0.2-0.2,0.4-0.3,0.6-0.5c-0.4,0.3-0.4,0.4,0,0.1c0.4-0.2,0.7-0.5,1.1-0.7c0.4-0.2,0.7-0.5,1.1-0.6c-1.1,0.3,0.4-0.1,0.6-0.2
					c2.2-0.7,3.9-3.2,3.1-5.5C132.2,251.1,129.7,249.5,127.3,250.2L127.3,250.2z"/>
			</g>
		</g>
		<g>
			<g>
				<path class="st12" d="M121.3,253.5c-6.6,1.9-11.4,8.4-15.4,13.7c-1.9,2.5-4.5,5.9-4.3,9.2c0.2,3.2,2.9,5.8,6.1,5.5
					c5.7-0.5,5.8-9.5,0-9c0.9,1.2,1.9,2.5,2.8,3.7c0.2-0.4,0.4-0.8,0.6-1.1c0.6-0.6,0.9-1.5,1.4-2.2c1.1-1.6,2.4-3.1,3.7-4.6
					c2.1-2.3,4.3-5.6,7.4-6.5C129.2,260.6,126.8,251.9,121.3,253.5L121.3,253.5z"/>
			</g>
		</g>
		<g>
			<g>
				<path class="st12" d="M109.5,281.7c0.8,0.1,1.6,0.2,2.4,0.3c-0.4-2.9-0.8-5.9-1.2-8.8c-0.5,0.1-1,0.2-1.5,0.3
					c-4.2,0.8-4.4,8.1,0,8.7c4.2,0.6,8,0.5,12.2-0.4c3.9-0.8,4.3-6.4,1.1-8.2c-2.1-1.2-4.2-2.4-6.3-3.6c-0.4,2.7-0.7,5.5-1.1,8.2
					c9.6-2.6,19.8-1.4,29.3-4.4c4.1-1.3,7.9-3.3,12-4.7c3.4-1.2,6.2-1.5,7.6-5.1c0.5-1.3,0-3.5-1.2-4.4c-7.1-5.8-20.5-5.4-29.2-5.6
					c0.8,2.8,1.5,5.6,2.3,8.4c7.1-4.2,15.1-3.1,22.8-1.2c3.9,1,6.9-3.1,5.1-6.6c-2.4-4.6-7-5.3-11.7-5c-6.5,0.4-13.4,1.6-20,1.1
					c0.8,2.8,1.5,5.6,2.3,8.4c5.7-2.4,11.6-3.7,17.8-3.9c5.3-0.2,5.9-7.1,1.2-8.8c-4.4-1.7-8.8-1-13.3-0.1
					c-4.3,0.8-8.8,1.6-12.5,3.9c-4.9,3.1-0.4,10.9,4.5,7.8c4.5-2.8,13.9-4.8,18.9-2.9c0.4-2.9,0.8-5.9,1.2-8.8
					c-7.8,0.3-15.1,2.1-22.3,5.2c-4.5,1.9-1.6,8.1,2.3,8.4c4,0.3,8.2-0.3,12.2-0.5c1.6-0.1,10.8-1.8,11.7,0c1.7-2.2,3.4-4.4,5.1-6.6
					c-10.1-2.5-20.4-3.3-29.7,2.1c-3.9,2.3-2.2,8.3,2.3,8.4c4,0.1,8.1,0.2,12.1,0.7c2.7,0.3,8.8,0.7,10.7,2.2
					c-0.4-1.5-0.8-2.9-1.2-4.4c-0.1,0.1-0.1,0.3-0.2,0.4c0.7-0.9,1.4-1.8,2.1-2.7c-2.9,1.5-6.5,2.2-9.5,3.5
					c-3.6,1.5-7.2,2.9-11.1,3.5c-8,1.2-15.9,1.1-23.8,3.2c-3.7,1-4.4,6.3-1.1,8.2c2.1,1.2,4.2,2.4,6.3,3.6c0.4-2.7,0.7-5.5,1.1-8.2
					c-2.5,0.5-4.9,0.7-7.4,0.4c0,2.9,0,5.8,0,8.7c0.5-0.1,1-0.2,1.5-0.3c5.5-1,3.3-8.2-1.2-8.8c-0.8-0.1-1.6-0.2-2.4-0.3
					C103.8,272,103.9,281,109.5,281.7L109.5,281.7z"/>
			</g>
		</g>
		<g>
			<g>
				<path class="st12" d="M178.7,253.2c-3.5-4.7-8.2-7.2-14.1-8c-3.2-0.4-6.4-0.4-9.6-0.4c-2.8,0-5.9-0.4-8.5,0.7
					c-3.1,1.3-5,6.4-1.1,8.2c11.7,5.4,23.9,8.9,36.8,10.3c3.3,0.4,5.8-4.2,3.9-6.8c-1.5-2-3-3.9-4.8-5.6c-2.1,2.1-4.2,4.2-6.4,6.4
					c0.8,0.6,1.5,1.3,2.3,1.9c4.4,3.7,10.8-2.5,6.4-6.4c-2.1-1.8-4.2-3.6-6.6-4.9c-2.8-1.6-5.8-1.6-8.6-2.8
					c-0.8,2.8-1.5,5.6-2.3,8.4c1.2,0.2,2.3,0.5,3.4,1c5.3,2.2,7.7-6.5,2.4-8.7c-1.9-0.8-3.7-1.1-5.8-1.4c-4.3-0.5-6.3,6.7-2.3,8.4
					c2.3,1,4.5,1.2,6.8,2c2.5,0.9,4.6,2.6,6.6,4.3c2.1-2.1,4.2-4.2,6.4-6.4c-0.8-0.6-1.5-1.3-2.3-1.9c-4.4-3.6-10.6,2.3-6.4,6.4
					c1.3,1.2,2.4,2.3,3.4,3.8c1.3-2.3,2.6-4.5,3.9-6.8c-11.2-1.3-22.1-4.4-32.3-9.1c-0.4,2.7-0.7,5.5-1.1,8.2
					c2.9-1.2,8-0.5,11.2-0.3c3.8,0.1,8.3,0.5,10.8,3.9C174.4,262.4,182.2,257.9,178.7,253.2L178.7,253.2z"/>
			</g>
		</g>
		<g>
			<g>
				<path class="st12" d="M175.9,254.8c0-0.1,0.1-0.2,0.1-0.2c-0.2,0.3-0.5,0.6-0.7,0.9c0.1-0.1,0.1-0.1,0.2-0.2
					c-0.3,0.2-0.6,0.5-0.9,0.7c0.1-0.1,0.1-0.1,0.2-0.2c-0.4,0.2-0.7,0.3-1.1,0.5c0,0,0.1,0,0.1-0.1c0.7-0.3,1.4-0.6,2-1.2
					c0.7-0.7,1.1-1.6,1.2-2.6c0.2-1.8-0.6-3.5-2.1-4.5c-0.3-0.2-0.6-0.4-0.9-0.5c-0.4-0.2-0.9-0.5-1.2-0.5c-0.9-0.2-1.6-0.1-2.5,0
					c-1.5,0.2-2.8,1.8-3.1,3.1c-0.2,0.8-0.3,1.7,0,2.4c0.3,0.8,0.7,1.3,1.2,2c0.9,1.2,3,1.6,4.4,1.2c0,0,0,0,0,0
					c1.1-0.4,2.1-1,2.7-2.1c0.6-1,0.8-2.4,0.5-3.5c-0.4-1.1-1-2.1-2.1-2.7c-1-0.5-2.3-0.8-3.5-0.5c0,0,0,0,0,0
					c1.5,0.4,2.9,0.8,4.4,1.2c0,0,0,0,0,0c0.4,1.5,0.8,2.9,1.2,4.4c0,0,0,0,0,0c-1,1-2.1,2.1-3.1,3.1c0,0,0,0,0.1,0
					c-1.2-0.2-2.3-0.3-3.5-0.5c0.4,0.2,0.7,0.4,1,0.6c0.4-2.7,0.7-5.5,1.1-8.2c-0.9,0.4-1.6,0.6-2.3,1.4c-0.4,0.4-0.8,0.8-1,1.4
					c-0.5,1.1-0.8,2.2-0.5,3.5c0.3,1,1.1,2.2,2.1,2.7c1,0.6,2.3,0.8,3.5,0.5C174.3,256.5,175.4,255.8,175.9,254.8L175.9,254.8z"/>
			</g>
		</g>
		<g>
			<g>
				<path class="st12" d="M127.6,280.1c4.5,0.2,8.5-0.2,12.8-1.5c5-1.6,10.3-2,15.3-3.6c4.5-1.4,8.8-1.9,13.5-2.6
					c5.3-0.8,10.2-3.3,15.5-3.8c2.6-0.2,5.5-2.7,4.3-5.7c-1.9-5-3.8-7-9.5-6.4c-6.3,0.7-12.5,0.9-18.9,1c-3.7,0-6.2,5.1-3.2,7.7
					c1.4,1.2,1.3,2.6,1.1,4.4c-0.5,3.5,1.9,6.3,5.5,5.5c7.4-1.5,16.1-2.1,22.9-5.6c3.9-2,2.2-8.8-2.3-8.4c-8.7,0.7-17.5,3.8-26,5.9
					c-4.2,1-8.1,1.7-12.4,1.8c-3.4,0.1-6.4,0.5-9.5,2c-3.4,1.6-2.6,7.5,1.1,8.2c3,0.6,5.6,0.6,8.5-0.1c4.2-0.9,4.4-8,0-8.7
					c-4.4-0.6-7.8,0.6-12.1,1.5c-5.7,1.2-3.3,9.9,2.4,8.7c2.2-0.5,5-1.8,7.3-1.5c0-2.9,0-5.8,0-8.7c-1.2,0.3-2.5,0.4-3.7,0.1
					c0.4,2.7,0.7,5.5,1.1,8.2c2.9-1.3,6.7-0.6,9.8-0.9c3.4-0.3,6.7-1.1,10-1.9c7.6-1.9,15.7-4.9,23.6-5.6c-0.8-2.8-1.5-5.6-2.3-8.4
					c-5.9,3-14.3,3.3-20.8,4.7c1.8,1.8,3.7,3.7,5.5,5.5c0.7-4.9,0.6-9.7-3.4-13.2c-1.1,2.6-2.1,5.1-3.2,7.7c3.6,0,7.3,0,10.9-0.1
					c3.1-0.1,7.6-1.7,10.6-1c-0.9-0.7-1.8-1.4-2.7-2.1c0.4,0.6,0.7,1.3,0.9,2c1.4-1.9,2.9-3.8,4.3-5.7c-4.8,0.4-9.1,2.1-13.8,3.3
					c-4.9,1.2-9.9,1.1-14.8,2.5c-4.7,1.3-9.3,2.3-14.1,3.4c-5,1.2-9.2,2.5-14.5,2.4C121.8,270.9,121.8,279.9,127.6,280.1
					L127.6,280.1z"/>
			</g>
		</g>
		<g>
			<g>
				<path class="st12" d="M132.2,272.3c-2,0.1-3.9-0.2-5.9,0.2c-1.4,0.3-2.8,0.7-4.2,0.9c-2.4,0.3-4.5,1.9-4.5,4.5
					c0,2.2,2.1,4.8,4.5,4.5c1.8-0.2,3.7-0.4,5.5-0.9c1.6-0.5,3-0.2,4.7-0.3C138,281.1,138,272.1,132.2,272.3L132.2,272.3z"/>
			</g>
		</g>
		<g>
			<g>
				<path class="st12" d="M99.4,258.7c-0.4,0.6-0.9,1.2-1.4,1.7c0.6,0.6,1.3,1.3,1.9,1.9c0.7-0.7,1.1-1.4,1.3-2.4
					c0.4-1.3-1.3-2.3-2.3-1.3c-3,3.2-5.6,7.7-6.2,12.1c-0.2,1.5,1.6,2.4,2.5,1c1.3-2,3.1-3.3,4.6-5.2c1.2-1.5,1.9-3.5,3.6-4.6
					c1.5-0.9,0.1-3.3-1.4-2.3c-1.9,1.2-2.8,3-4,4.8c-0.8,1.1-1.9,1.8-2.8,2.8c-0.9,1-1.6,2.1-2.4,3.2c0.8,0.3,1.6,0.7,2.5,1
					c0.6-4,2.8-8.1,5.5-10.9c-0.8-0.4-1.5-0.9-2.3-1.3c-0.2,0.4-0.4,0.8-0.6,1.2c-1.2,1.3,0.7,3.1,1.9,1.9c0.7-0.7,1.3-1.4,1.8-2.3
					C102.7,258.6,100.4,257.3,99.4,258.7L99.4,258.7z"/>
			</g>
		</g>
		<g>
			<g>
				<path class="st12" d="M102.7,259.8c-0.1-0.2-0.1-0.3,0.1-0.4c0.8-1.2-0.7-2.4-1.8-1.8c-0.3,0.1-0.4,0.3-0.6,0.5
					c0.8,0.3,1.5,0.6,2.3,1c0-0.2-0.1-0.5-0.1-0.7c-0.2,0.4-0.4,0.8-0.7,1.2c1.4-0.9,2.1-2.5,3.5-3.5c1.4-1,0-3.4-1.4-2.3
					c-1,0.8-1.9,1.7-2.7,2.7c-0.3,0.5-0.7,0.6-1.1,1c-0.5,0.5-0.4,1.1-0.3,1.7c0.1,1.1,1.4,1.9,2.3,1c0,0,0.1,0,0.1-0.1
					c-0.6-0.6-1.2-1.2-1.8-1.8c-0.3,0.5-0.5,1.1-0.4,1.8c0.1,0.7,0.6,1.3,1.3,1.4C102,261.2,102.8,260.5,102.7,259.8L102.7,259.8z"
					/>
			</g>
		</g>
		<g>
			<g>
				<path class="st12" d="M106,254.2c0-0.5,0.3-1,0.8-1.2c0.5-0.3,0-1.2-0.5-0.9c-0.8,0.5-1.2,1.2-1.3,2.1
					C104.9,254.9,105.9,254.9,106,254.2L106,254.2z"/>
			</g>
		</g>
		<g>
			<g>
				<path class="st12" d="M106.7,252.7c0.6,0,0.6-1,0-1C106,251.7,106,252.7,106.7,252.7L106.7,252.7z"/>
			</g>
		</g>
		<g>
			<g>
				<path class="st12" d="M104.9,253.1c-0.1,0.2-0.3,0.4-0.4,0.5c-0.4,0.5,0.5,1,0.9,0.5c0.1-0.2,0.3-0.4,0.4-0.5
					C106.2,253.1,105.3,252.6,104.9,253.1L104.9,253.1z"/>
			</g>
		</g>
		<g>
			<g>
				<path class="st12" d="M104.8,255.9c-0.1,0.9-0.1,1.8,0.2,2.6c0.1,0.2,0.1,0.6,0.3,0.7c0.2,0.2,0.4,0.1,0.2,0.2
					c-0.3,0.1-0.7,0.1-1,0.2c-0.1,0-0.2,0.2-0.3,0.2c-0.2,0-0.2-0.3-0.3-0.5c-0.2-0.4-0.5-0.7-0.1-1.1c0.6-0.5,0.9-0.8,1.1-1.6
					c-0.3,0.1-0.6,0.2-0.9,0.4c0.3,0.3,0.2,1.2,0.3,1.6c0.1,0.3,0.5,0.7,0.5,0.9c0-0.2,0.1-0.3,0.1-0.5c-0.6,0.5-0.6-0.8-0.6-1.1
					c-0.2,0.2-0.4,0.3-0.6,0.5c0,0.2,0.1,0.3,0.1,0.5c0,0.6,1,0.6,1,0c0-0.7-0.1-1.3-0.9-1.4c-0.3-0.1-0.6,0.1-0.6,0.5
					c0,0.7,0,1.5,0.7,2c0.4,0.3,1.1,0.3,1.5-0.1c0.4-0.3,0.3-0.7,0-1.1c-0.4-0.6-0.3-1.1-0.4-1.7c-0.1-0.3-0.2-0.6-0.4-0.8
					c-0.4-0.3-0.8-0.1-0.9,0.4c-0.1,0.8-0.9,0.6-1.2,1.2c-0.2,0.4-0.1,0.8,0,1.2c0.2,0.6,0.7,1.9,1.6,1.8c0.2,0,0.2-0.1,0.4-0.2
					c0.3-0.1,0.5-0.3,0.9-0.4c0.3-0.1,0.6,0,0.7-0.4c0.2-0.4,0-0.9-0.1-1.3c-0.3-0.8-0.4-1.7-0.3-2.5
					C105.8,255.5,104.9,255.3,104.8,255.9L104.8,255.9z"/>
			</g>
		</g>
		<g>
			<g>
				<path class="st12" d="M93.6,272.4c-0.1,0.5-0.2,1.1-0.4,1.6c-0.2,0.6,0.8,0.9,1,0.3c0.2-0.5,0.3-1,0.4-1.6
					C94.6,272.1,93.7,271.8,93.6,272.4L93.6,272.4z"/>
			</g>
		</g>
		<g>
			<g>
				<path class="st12" d="M93.6,275.1c0.6,0,0.6-1,0-1C92.9,274.1,92.9,275.1,93.6,275.1L93.6,275.1z"/>
			</g>
		</g>
		<g>
			<g>
				<path class="st12" d="M100.9,266c0.6,0,0.6-1,0-1C100.2,265,100.2,266,100.9,266L100.9,266z"/>
			</g>
		</g>
		<g>
			<g>
				<path class="st12" d="M113.3,247.7c-0.4,0.2-0.9,0.4-1.3,0.7c-0.6,0.3-0.1,1.2,0.5,0.9c0.4-0.2,0.9-0.4,1.3-0.7
					C114.3,248.3,113.8,247.4,113.3,247.7L113.3,247.7z"/>
			</g>
		</g>
		<g>
			<g>
				<path class="st12" d="M185.9,258.5c0.8,0.2,1,0.9,1.2,1.6c0.2,0.6,1.2,0.3,1-0.3c-0.3-1-0.8-2.1-1.9-2.3
					C185.6,257.4,185.3,258.4,185.9,258.5L185.9,258.5z"/>
			</g>
		</g>
		<g>
			<g>
				<path class="st12" d="M186.8,258.5c0.6,0,0.6-1,0-1C186.1,257.5,186.1,258.5,186.8,258.5L186.8,258.5z"/>
			</g>
		</g>
		<g class="st10">
			<g>
				<path class="st13" d="M115.3,263c-2.1,4.2-3.9,8.5-5.5,12.9c-0.2,0.6,0.8,0.9,1,0.3c1.5-4.3,3.3-8.5,5.4-12.6
					C116.4,262.9,115.6,262.4,115.3,263L115.3,263z"/>
			</g>
		</g>
		<g class="st10">
			<g>
				<path class="st13" d="M124.5,257.2c-1.8,6.2-3.6,12.4-5.5,18.6c-0.2,0.6,0.8,0.9,1,0.3c1.8-6.2,3.6-12.4,5.5-18.6
					C125.7,256.8,124.7,256.6,124.5,257.2L124.5,257.2z"/>
			</g>
		</g>
		<g class="st10">
			<g>
				<path class="st13" d="M131.3,255.1c-2,7-3.8,14-5.2,21.1c-0.1,0.6,0.8,0.9,1,0.3c1.4-7.1,3.2-14.2,5.2-21.1
					C132.5,254.8,131.5,254.5,131.3,255.1L131.3,255.1z"/>
			</g>
		</g>
		<g class="st10">
			<g>
				<path class="st13" d="M138.3,250.4c-2.8,9.6-5.4,19.2-7.9,28.8c-0.2,0.6,0.8,0.9,1,0.3c2.5-9.7,5.2-19.3,7.9-28.8
					C139.5,250.1,138.5,249.8,138.3,250.4L138.3,250.4z"/>
			</g>
		</g>
		<g class="st10">
			<g>
				<path class="st13" d="M145.5,249.7c-2.6,9.2-5.4,18.3-8.4,27.4c-0.2,0.6,0.8,0.9,1,0.3c2.9-9.1,5.7-18.2,8.4-27.4
					C146.7,249.3,145.7,249.1,145.5,249.7L145.5,249.7z"/>
			</g>
		</g>
		<g class="st10">
			<g>
				<path class="st13" d="M153,249.8c-2.1,8.5-4.5,17-7.1,25.5c-0.2,0.6,0.8,0.9,1,0.3c2.6-8.4,5-16.9,7.1-25.5
					C154.1,249.4,153.1,249.2,153,249.8L153,249.8z"/>
			</g>
		</g>
		<g class="st10">
			<g>
				<path class="st13" d="M159.4,251.3c-1.7,7.6-4,15-6.8,22.2c-0.2,0.6,0.7,0.9,1,0.3c2.8-7.2,5.1-14.6,6.8-22.2
					C160.5,250.9,159.5,250.7,159.4,251.3L159.4,251.3z"/>
			</g>
		</g>
		<g class="st10">
			<g>
				<path class="st13" d="M165.3,252.8c-1.3,7.5-3,14.8-5.2,22.1c-0.2,0.6,0.8,0.9,1,0.3c2.2-7.2,4-14.6,5.2-22.1
					C166.3,252.4,165.4,252.2,165.3,252.8L165.3,252.8z"/>
			</g>
		</g>
		<g class="st10">
			<g>
				<path class="st13" d="M172.4,252.9c-0.8,5.6-2,11.1-3.5,16.5c-0.2,0.6,0.8,0.9,1,0.3c1.5-5.4,2.7-10.9,3.5-16.5
					C173.5,252.6,172.5,252.3,172.4,252.9L172.4,252.9z"/>
			</g>
		</g>
		<g class="st10">
			<g>
				<path class="st13" d="M181,256.8c-1.2,4.3-3.4,8.2-4.5,12.5c-0.2,0.6,0.8,0.9,1,0.3c1.1-4.3,3.3-8.2,4.5-12.5
					C182.1,256.5,181.1,256.2,181,256.8L181,256.8z"/>
			</g>
		</g>
		<g class="st10">
			<g>
				<path class="st13" d="M184.8,262.3c-0.8,2.4-2.5,4.5-3.1,7.1c-0.1,0.6,0.8,0.9,1,0.3c0.5-2.6,2.2-4.6,3.1-7.1
					C185.9,261.9,185,261.7,184.8,262.3L184.8,262.3z"/>
			</g>
		</g>
		<g class="st10">
			<g>
				<path class="st13" d="M104.9,259c-3,0.7-5.3,3.2-5.8,6.2c-0.1,0.6,0.9,0.9,1,0.3c0.4-2.7,2.4-4.9,5.1-5.5
					C105.8,259.8,105.5,258.8,104.9,259L104.9,259z"/>
			</g>
		</g>
		<g class="st10">
			<g>
				<path class="st13" d="M113.6,247.7c-0.4-0.1-0.8,0-1.1,0.3c-0.5,0.4,0.2,1.1,0.7,0.7c0-0.1,0.1-0.1,0.2,0
					C113.9,248.8,114.2,247.9,113.6,247.7L113.6,247.7z"/>
			</g>
		</g>
		<g class="st10">
			<g>
				<path class="st13" d="M112.2,249.2c0.6,0,0.6-1,0-1C111.6,248.2,111.6,249.2,112.2,249.2L112.2,249.2z"/>
			</g>
		</g>
		<g class="st10">
			<g>
				<path class="st13" d="M99.6,265.1c-1.4,1.1-3.1,2.1-4.2,3.6c-1.1,1.5-1.9,3.4-2.1,5.2c-0.1,0.6,0.9,0.9,1,0.3
					c0.2-1.6,0.9-3.2,1.8-4.6c0.9-1.5,2.7-2.5,4.1-3.6C100.7,265.6,100.2,264.8,99.6,265.1L99.6,265.1z"/>
			</g>
		</g>
		<g class="st10">
			<g>
				<path class="st13" d="M105.8,259.1c-0.1-2,0.1-3.9,0.5-5.8c0.1-0.6-0.8-0.9-1-0.3c-0.4,2-0.6,4-0.6,6.1
					C104.8,259.7,105.8,259.7,105.8,259.1L105.8,259.1z"/>
			</g>
		</g>
		<g class="st14">
			<g>
				<path class="st13" d="M115.6,269.3c3.5,0,3.5-5.4,0-5.4C112.1,263.9,112.1,269.3,115.6,269.3L115.6,269.3z"/>
			</g>
		</g>
		<g class="st14">
			<g>
				<path class="st13" d="M126.7,270.3c3.5,0,3.5-5.4,0-5.4C123.2,264.9,123.2,270.3,126.7,270.3L126.7,270.3z"/>
			</g>
		</g>
		<g class="st14">
			<g>
				<path class="st13" d="M119.3,277.3c3.5,0,3.5-5.4,0-5.4C115.8,271.9,115.8,277.3,119.3,277.3L119.3,277.3z"/>
			</g>
		</g>
		<g class="st14">
			<g>
				<path class="st13" d="M167,264.8c3.5,0,3.5-5.4,0-5.4C163.5,259.4,163.5,264.8,167,264.8L167,264.8z"/>
			</g>
		</g>
		<g class="st14">
			<g>
				<path class="st13" d="M176.2,260.3c3.5,0,3.5-5.4,0-5.4C172.7,254.9,172.7,260.3,176.2,260.3L176.2,260.3z"/>
			</g>
		</g>
		<g class="st14">
			<g>
				<path class="st13" d="M176.1,269.6c3.5,0,3.5-5.4,0-5.4C172.6,264.2,172.6,269.6,176.1,269.6L176.1,269.6z"/>
			</g>
		</g>
		<g>
			<g>
				<path d="M101.8,276.5c0.5-6.5,5.5-12,10-16.3c4.1-3.9,8.8-7.2,13.9-9.7c11.7-5.8,24.7-6.4,37.5-5.7c6.9,0.4,13.4,2.2,18.6,6.8
					c3.9,3.5,10.8,12.3,5.8,17.3c-2.1,2-5.3,2.6-8,3.1c-3.6,0.7-7.1,1.5-10.7,2.2c-6.8,1.4-13.6,2.7-20.5,4c-8,1.6-16,3.2-24.1,3.9
					c-4.1,0.4-8.1,0.6-12.2,0.4c-4.1-0.1-10.9-0.8-10.4-6.5c0.1-0.6-0.9-0.6-1,0c-0.6,6.9,8,7.5,12.9,7.6c8.4,0.2,16.7-1,25-2.5
					c8.4-1.5,16.8-3.2,25.2-4.9c4.4-0.9,8.8-1.7,13.1-2.6c3-0.6,6.3-1,9.1-2.5c5.7-2.9,4.4-9.1,1.7-13.8c-3-5.2-7.9-9.4-13.6-11.5
					c-7.2-2.7-15.3-2.3-22.8-2.2c-7.3,0.1-14.3,1.1-21.1,3.7c-6.6,2.5-12.8,6.3-18.1,11c-5.2,4.7-10.9,10.8-11.4,18.1
					C100.8,277.1,101.8,277.1,101.8,276.5L101.8,276.5z"/>
			</g>
		</g>
		<g>
			<g>
				<path d="M117.6,282.7c-7.3,0.8-23,2.3-24-8.2c-1.2-13.1,10.7-21.6,20.8-27.1c0.6-0.3,0.1-1.2-0.5-0.9
					c-10.4,5.7-23.4,15.2-21.2,28.8c1.7,10.6,17.3,9.2,24.9,8.4C118.2,283.6,118.2,282.6,117.6,282.7L117.6,282.7z"/>
			</g>
		</g>
		<g>
			<g>
				<path d="M109.8,259.4c-2.2-0.1-4.3,0.5-6.1,1.6c-1.2,0.8-3.3,2.3-3.1,3.9c0.1,0.6,1.1,0.6,1,0c-0.2-1.5,2.5-3.1,3.6-3.6
					c1.5-0.7,3.1-1,4.7-1C110.5,260.4,110.5,259.4,109.8,259.4L109.8,259.4z"/>
			</g>
		</g>
		<g>
			<g>
				<path d="M105.4,265.3c-7.2-1.2-10.6,5.3-12.4,11.3c-0.2,0.6,0.8,0.9,1,0.3c1.6-5.3,4.5-11.6,11.1-10.6
					C105.8,266.4,106,265.4,105.4,265.3L105.4,265.3z"/>
			</g>
		</g>
		<g>
			<g>
				<path d="M106.7,259c-0.3-2.3-0.6-4.8,1.1-6.7c1.1-1.2,2.9-2,4.4-2.5c3.3-1,6.7-0.7,9.7,0.9c0.6,0.3,1.1-0.6,0.5-0.9
					c-3.7-1.9-8.1-2.1-12-0.4c-4.5,2-5.5,5.2-4.8,9.9C105.8,259.9,106.8,259.6,106.7,259L106.7,259z"/>
			</g>
		</g>
		<g>
			<g>
				<path d="M114.7,247.5c-0.7-3,1.3-5.5,4.4-5.8c0.9-0.1,1.9,0.1,2.8-0.3c1.8-0.7,2.6-2.5,3.8-3.8c2.3-2.4,6.9-2.8,9.9-1.6
					c4.1,1.6,2.5,5.4,3.3,8.7c0.2,0.6,1.1,0.4,1-0.3c-0.9-3.5,0.7-7-3.1-9.1c-2.7-1.5-7.2-1.4-9.9,0.1c-1.6,0.8-2.4,2.2-3.5,3.5
					c-1.8,2.1-3.6,1.3-5.9,2c-3,0.9-4.4,3.8-3.7,6.8C113.9,248.4,114.8,248.1,114.7,247.5L114.7,247.5z"/>
			</g>
		</g>
		<g>
			<g>
				<path d="M139.8,239.3c1.2-3.5,8-3.6,10.8-3.7c2.2,0,4.5-0.3,6,1.7c1.3,1.6,1.9,4,2.4,6c0.2,0.6,1.1,0.4,1-0.3
					c-0.6-2.3-1.3-5.2-3-6.9c-1.6-1.6-3.8-1.5-6-1.4c-3.6,0-10.8,0.3-12.2,4.4C138.7,239.6,139.6,239.9,139.8,239.3L139.8,239.3z"/>
			</g>
		</g>
		<g>
			<g>
				<path d="M159.5,239.6c1.2,0,2.5-0.1,3.7,0c1.5,0.1,1.8,0.5,2.2,1.8c0,0.2,0.2,0.3,0.3,0.3c2.1,0.4,8.1-1.1,7.1,3.4
					c-0.1,0.6,0.8,0.9,1,0.3c0.8-3.4-2.7-4.7-5.4-4.6c-1.2,0-1.5-0.2-2.2-1c-0.3-0.3-0.3-0.5-0.7-0.8c-1.5-0.9-4.4-0.4-6-0.4
					C158.8,238.6,158.8,239.6,159.5,239.6L159.5,239.6z"/>
			</g>
		</g>
		<g>
			<g>
				<path d="M174.3,244.4c2.1-0.1,5.5-0.5,7.5,0.3c2.6,1,2.2,4.3,2.3,6.7c0,0.2,0.2,0.5,0.5,0.5c4.6-0.5,5.2,6.9,5,10
					c0,0.6,1,0.6,1,0c0.2-2.8-0.2-5.8-1.5-8.3c-0.5-0.9-1.1-1.7-2-2.2c-1.3-0.8-1.9-0.1-2.1-1.8c-0.2-1.8,0.4-4.2-1.4-5.3
					c-2.2-1.5-6.8-1-9.3-0.8C173.6,243.4,173.6,244.5,174.3,244.4L174.3,244.4z"/>
			</g>
		</g>
		<g>
			<g>
				<path d="M97.6,269.3c0.6-0.5,1.1-1,1.6-1.6c0.5-0.5-0.2-1.2-0.7-0.7c-0.5,0.5-1.1,1.1-1.6,1.6C96.4,269,97.1,269.8,97.6,269.3
					L97.6,269.3z"/>
			</g>
		</g>
		<g>
			<g>
				<path d="M106.8,259.8c0-0.2,0-0.3-0.1-0.5c-0.1-0.6-1.1-0.6-1,0c0,0.2,0,0.3,0.1,0.5C105.9,260.4,106.9,260.4,106.8,259.8
					L106.8,259.8z"/>
			</g>
		</g>
		<g>
			<g>
				<path d="M113.6,247.2c0,0.6,0.2,1.1,0.5,1.5c0.4,0.5,1.1-0.2,0.7-0.7c-0.2-0.2-0.2-0.5-0.2-0.8
					C114.6,246.5,113.6,246.5,113.6,247.2L113.6,247.2z"/>
			</g>
		</g>
		<g>
			<g>
				<path d="M159.7,238.6c-0.2,0-0.5,0-0.7,0c-0.6,0-0.6,1,0,1c0.2,0,0.5,0,0.7,0C160.3,239.6,160.4,238.6,159.7,238.6L159.7,238.6z
					"/>
			</g>
		</g>
		<g>
			<g>
				<path d="M159,243c0,0.2,0,0.4,0.1,0.6c0.2,0.6,1.2,0.3,1-0.3c-0.1-0.1-0.1-0.2-0.1-0.4C160,242.3,159,242.3,159,243L159,243z"/>
			</g>
		</g>
		<g>
			<g>
				<path d="M174.4,243.3c-0.2,0-0.3,0-0.5,0c-0.6,0.1-0.6,1.1,0,1c0.2,0,0.3,0,0.5,0C175.1,244.2,175.1,243.2,174.4,243.3
					L174.4,243.3z"/>
			</g>
		</g>
		<g>
			<g>
				<path d="M122.2,250.8c0.2,0.1,0.4,0.2,0.6,0.3c0.6,0.3,1.1-0.6,0.5-0.9c-0.3-0.1-0.6-0.3-0.9-0.4
					C121.8,249.7,121.6,250.6,122.2,250.8L122.2,250.8z"/>
			</g>
		</g>
		<g>
			<g>
				<path d="M109.4,260.3c0.5,0,0.9,0,1.4,0c0.6,0,0.6-1,0-1c-0.5,0-0.9,0-1.4,0C108.8,259.3,108.8,260.3,109.4,260.3L109.4,260.3z"
					/>
			</g>
		</g>
		<g>
			<g>
				<path d="M100.6,264.6c0,0.5,0,0.9,0.1,1.3c0.1,0.6,1.1,0.4,1-0.3c-0.1-0.4-0.1-0.7-0.1-1.1C101.6,264,100.6,264,100.6,264.6
					L100.6,264.6z"/>
			</g>
		</g>
	</g>
	<g>
		<g>
			<path d="M136.7,263.5c2.9,0,2.9-4.5,0-4.5C133.9,259,133.8,263.5,136.7,263.5L136.7,263.5z"/>
		</g>
	</g>
	<g>
		<g>
			<path d="M154.9,260.8c2.9,0,2.9-4.5,0-4.5C152,256.3,152,260.8,154.9,260.8L154.9,260.8z"/>
		</g>
	</g>
	<g>
		<g>
			<path d="M137.8,272.3c1.6,0,3-0.6,4.5-1.1c1.3-0.4,4.3-1.9,5.5-1.1c1.5,0.9,2.8-1.4,1.4-2.3c-3.4-2.2-7.9,1.9-11.4,1.8
				C136.1,269.6,136.1,272.3,137.8,272.3L137.8,272.3z"/>
		</g>
	</g>
	<g>
		<g>
			<path d="M132.3,256.8c0.7-0.6,1.4-1.1,2-1.8c0.5-0.5,0.5-1.4,0-1.9c-0.5-0.5-1.4-0.5-1.9,0c-0.6,0.6-1.3,1.2-2,1.8
				c-0.6,0.5-0.5,1.4,0,1.9C131,257.4,131.7,257.3,132.3,256.8L132.3,256.8z"/>
		</g>
	</g>
	<g>
		<g>
			<path d="M154.2,252.2c1.1,0.6,2.1,1.2,3.2,1.8c1.5,0.8,2.9-1.5,1.4-2.3c-1.1-0.6-2.1-1.2-3.2-1.8
				C154,249.1,152.7,251.4,154.2,252.2L154.2,252.2z"/>
		</g>
	</g>
</g>
</svg>
