<?xml version="1.0" encoding="utf-8"?>
<!-- Generator: Adobe Illustrator 21.1.0, SVG Export Plug-In . SVG Version: 6.00 Build 0)  -->
<svg version="1.1" id="Layer_1" xmlns="http://www.w3.org/2000/svg" xmlns:xlink="http://www.w3.org/1999/xlink" x="0px" y="0px"
	 viewBox="0 0 121.1 38" style="enable-background:new 0 0 121.1 38;" xml:space="preserve">
<style type="text/css">
	.st0{fill:#C92064;}
	.st1{display:none;}
	.st2{display:inline;fill:#6B3E98;}
	.st3{display:inline;fill:#F9A026;}
	.st4{display:inline;fill:#EF3C3A;}
	.st5{display:inline;fill:#C92064;}
</style>
<g>
	<path class="st0" d="M22,15.7c0,7.6-5.2,12.5-13.2,12.5H0V3.1h8.8C16.8,3.1,22,8.1,22,15.7z M8.6,23.9c5.3,0,8.3-3,8.3-8.2
		s-3-8.4-8.3-8.4H5v16.6H8.6z"/>
	<path class="st0" d="M34.5,28.5c-5.8,0-10-4-10-10.3C24.5,12,28.6,8,34.5,8c5.8,0,9.8,3.9,9.8,9.9c0,0.6,0,1.3-0.1,1.9H29.6
		c0.3,3,2.3,4.6,4.8,4.6c2.2,0,3.3-1.1,4-2.4h5.4C42.8,25.6,39.5,28.5,34.5,28.5z M29.7,16.4h9.5c-0.1-2.6-2.2-4.3-4.8-4.3
		C32,12.1,30.1,13.6,29.7,16.4z"/>
	<path class="st0" d="M55.7,28.5c-5,0-8.5-2.9-8.7-6.6H52c0.2,1.5,1.6,2.7,3.6,2.7c2,0,3.1-0.9,3.1-2.1c0-3.6-11.3-1.3-11.3-8.6
		c0-3.3,3-6,7.9-6c4.8,0,7.7,2.6,8,6.6h-4.8C58.4,13,57.1,12,55.2,12c-1.9,0-2.8,0.8-2.8,1.9c0,3.6,11,1.4,11.2,8.7
		C63.5,26,60.5,28.5,55.7,28.5z"/>
	<path class="st0" d="M67.1,3c0-1.7,1.3-3,3.1-3c1.8,0,3.1,1.3,3.1,3c0,1.7-1.3,3-3.1,3C68.4,5.9,67.1,4.6,67.1,3z M67.6,8.3h5v19.9
		h-5V8.3z"/>
	<path class="st0" d="M85.5,8c3.1,0,5.4,1.4,6.6,3.2V8.3h5.1v20.1c0,5.4-3.3,9.7-9.9,9.7c-5.6,0-9.5-2.8-10-7.4h5
		c0.5,1.8,2.4,3,4.9,3c2.8,0,4.9-1.6,4.9-5.3v-3.1c-1.2,1.7-3.5,3.3-6.6,3.3c-5.1,0-9.1-4.1-9.1-10.4C76.4,12,80.4,8,85.5,8z
		 M86.8,12.4c-2.7,0-5.3,2-5.3,5.8s2.6,5.9,5.3,5.9c2.8,0,5.3-2.1,5.3-5.9S89.5,12.4,86.8,12.4z"/>
	<path class="st0" d="M116,17.2c0-3.2-1.8-4.9-4.4-4.9c-2.7,0-4.5,1.7-4.5,4.9v11h-5V8.3h5v2.5c1.3-1.7,3.5-2.8,6-2.8
		c4.6,0,8,3,8,8.5v11.7h-5V17.2z"/>
</g>
<g class="st1">
	<path class="st2" d="M-2.5-179.6c-3.4,0.4-62.9,7.2-93.6-6.7c-39.9-18.1-54.6-17.3-78.7-7.2c-37.2,15.5-76.9,15.3-125.7-4.4
		c-49.6-20.1-75.7,3.5-78.7,6.4c-0.2,0.2-0.3,0.3-0.3,0.3l25.3-51.6l6.4-13.1l35.9-73.3l0.3-0.7l0.5,0.2l0.7,0.3L-2.5-179.6z"/>
	<path class="st3" d="M-60.9-207.5c-2.7,0.2-50.1,4-75-7.3c-32.3-14.7-44-14.4-63.1-7.3c-29.4,11-61.2,9.9-100.6-6.3
		c-40.1-16.5-60.4,0.9-62.7,3.1c-0.1,0.1-0.2,0.2-0.2,0.2l19-38.8l4.8-9.9l27-55.2l0.2-0.5l0.4,0.2l0.5,0.3L-60.9-207.5z"/>
	<path class="st4" d="M-122.7-237.6c-2,0.1-37.8,2.9-56.5-5.6c-24.4-11.1-33.2-10.9-47.5-5.6c-22.1,8.2-46.1,7.3-75.8-4.9
		c-30.3-12.4-45.5,0.6-47.3,2.2c-0.1,0.1-0.2,0.2-0.2,0.2l14.2-29.1l3.6-7.4l20.2-41.3l0.2-0.4l0.3,0.2l0.4,0.2L-122.7-237.6z"/>
	<path class="st5" d="M-185-268.5c-1.4,0.1-25.3,2-37.9-3.7c-16.3-7.4-22.3-7.3-31.9-3.7c-14.8,5.5-30.9,5-50.9-3.2
		c-20.3-8.3-30.5,0.4-31.7,1.5c-0.1,0.1-0.1,0.1-0.1,0.1l9.6-19.5l2.4-5l13.6-27.8l0.1-0.3l0.2,0.1l0.3,0.1L-185-268.5z"/>
</g>
</svg>
