<?xml version="1.0" encoding="utf-8"?>
<!-- Generator: Adobe Illustrator 21.1.0, SVG Export Plug-In . SVG Version: 6.00 Build 0)  -->
<svg version="1.1" id="Layer_1" xmlns="http://www.w3.org/2000/svg" xmlns:xlink="http://www.w3.org/1999/xlink" x="0px" y="0px"
	 viewBox="0 0 283.1 105.3" style="enable-background:new 0 0 283.1 105.3;" xml:space="preserve">
<style type="text/css">
	.st0{fill:#EF3C3A;stroke:#EF3C3A;stroke-width:2;stroke-miterlimit:10;}
	.st1{fill:#DA1C5C;}
	.st2{fill:#EF3C3A;}
	.st3{fill:#F4A025;}
	.st4{fill:#6B3E98;}
</style>
<path class="st0" d="M280,102.7c-0.3,0-0.9,0.1-1.9,0.2l0,0L47.6,4.3l-1-0.4l-0.5-0.2l-0.3-0.1l-0.4,1L5.1,98.1
	c-0.2,0.2-0.4,0.4-0.6,0.5c-0.1,0.1-0.2,0.2-0.3,0.2c-0.3,0.2-0.5,0.4-0.6,0.6c-0.1,0.1-0.2,0.2-0.2,0.2l15.6-36.2l4-9.2L45.2,2.8
	l0.2-0.5l0.4,0.2l0,0l0.5,0.2L48,3.4L280,102.7z"/>
<g>
	<path class="st1" d="M34.1-3.6c-1.3,0.2-24.6,4.1-37-0.7C-18.9-10.6-24.7-10-34-5.5c-14.3,6.9-30,7.6-49.6,0.8
		c-19.9-6.9-29.7,2.9-30.8,4.1c-0.1,0.1-0.1,0.1-0.1,0.1l8.9-20.8l2.3-5.3l12.6-29.6l0.1-0.3l0.2,0.1l0.3,0.1L34.1-3.6z"/>
	<path class="st2" d="M11.9-12.8c-1.1,0.1-19.9,2.7-30.1-1.3c-13.2-5.2-17.9-4.8-25.3-1.6c-11.5,5-24.2,5.2-40.3-0.4
		c-16.3-5.7-24.1,1.6-25,2.5c-0.1,0.1-0.1,0.1-0.1,0.1l6.8-15.9l1.7-4l9.6-22.6l0.1-0.2l0.2,0.1l0.2,0.1L11.9-12.8z"/>
	<path class="st3" d="M-15.1-24.3c-0.8,0.1-14.6,1.9-22.1-1c-9.7-3.8-13.1-3.6-18.6-1.2c-8.4,3.6-17.8,3.8-29.6-0.4
		c-12-4.2-17.7,1.1-18.4,1.8c0,0-0.1,0.1-0.1,0.1l5-11.6l1.3-3l7-16.5l0.1-0.2l0.1,0.1l0.2,0.1L-15.1-24.3z"/>
	<path class="st4" d="M-40.8-35.4c-0.5,0.1-9.7,1.3-14.6-0.7c-6.4-2.5-8.7-2.4-12.3-0.8c-5.6,2.4-11.8,2.5-19.6-0.2
		c-8-2.8-11.7,0.8-12.2,1.2c0,0,0,0,0,0l3.3-7.7l0.8-2l4.7-11l0-0.1l0.1,0l0.1,0L-40.8-35.4z"/>
</g>
</svg>
