<?xml version="1.0" encoding="utf-8"?>
<!-- Generator: Adobe Illustrator 21.1.0, SVG Export Plug-In . SVG Version: 6.00 Build 0)  -->
<svg version="1.1" id="Layer_1" xmlns="http://www.w3.org/2000/svg" xmlns:xlink="http://www.w3.org/1999/xlink" x="0px" y="0px"
	 viewBox="0 0 283.1 105.3" style="enable-background:new 0 0 283.1 105.3;" xml:space="preserve">
<style type="text/css">
	.st0{fill:#DA1C5C;stroke:#DA1C5C;stroke-width:2;stroke-miterlimit:10;}
</style>
<path class="st0" d="M280,102.7c-0.3,0-0.9,0.1-1.9,0.2l0,0L47.6,4.3l-1-0.4l-0.5-0.2l-0.3-0.1l-0.4,1L5.1,98.1
	c-0.2,0.2-0.4,0.4-0.6,0.5c-0.1,0.1-0.2,0.2-0.3,0.2c-0.3,0.2-0.5,0.4-0.6,0.6c-0.1,0.1-0.2,0.2-0.2,0.2l15.6-36.2l4-9.2L45.2,2.8
	l0.2-0.5l0.4,0.2l0,0l0.5,0.2L48,3.4L280,102.7z"/>
</svg>
