<?xml version="1.0" encoding="utf-8"?>
<!-- Generator: Adobe Illustrator 21.1.0, SVG Export Plug-In . SVG Version: 6.00 Build 0)  -->
<svg version="1.1" id="Layer_1" xmlns="http://www.w3.org/2000/svg" xmlns:xlink="http://www.w3.org/1999/xlink" x="0px" y="0px"
	 viewBox="0 0 81.3 32" style="enable-background:new 0 0 81.3 32;" xml:space="preserve">
<style type="text/css">
	.st0{fill:#DA1C5C;stroke:#D91B5C;stroke-miterlimit:10;}
	.st1{display:none;fill:#6B3E98;stroke:#6B3E98;stroke-miterlimit:10;}
	.st2{display:none;fill:#EF3C3A;stroke:#EF3D3B;stroke-miterlimit:10;}
	.st3{display:none;fill:#F9A026;stroke:#F9A128;stroke-miterlimit:10;}
	.st4{display:none;}
	.st5{display:inline;}
	.st6{fill:#DA1C5C;}
	.st7{fill:#EF3C3A;}
	.st8{display:inline;fill:#F9A026;}
	.st9{display:inline;fill:#6B3E98;}
</style>
<path class="st0" d="M80,29.9c-0.1,0-0.2,0-0.5,0.1l0,0L15.1,2.7l-0.3-0.1l-0.1-0.1l-0.1,0l-0.1,0.3L3.3,28.9
	C3.3,29,3.2,29,3.2,29.1c0,0,0,0-0.1,0.1C3,29.2,3,29.3,2.9,29.3c0,0,0,0,0,0.1l4.3-10.1l1.1-2.6l6.1-14.4l0.1-0.1l0.1,0h0l0.1,0.1
	l0.5,0.2L80,29.9z"/>
<path class="st1" d="M79.1,29.1c-0.1,0-0.2,0-0.5,0.1l0,0L14.1,1.9l-0.3-0.1l-0.1-0.1l-0.1,0l-0.1,0.3L2.4,28.1
	c-0.1,0.1-0.1,0.1-0.2,0.1c0,0,0,0-0.1,0.1C2.1,28.3,2,28.4,2,28.4c0,0,0,0,0,0.1l4.3-10.1l1.1-2.6l6.1-14.4l0.1-0.1l0.1,0h0
	l0.1,0.1l0.5,0.2L79.1,29.1z"/>
<path class="st2" d="M181.1,24.9c-0.1,0-0.2,0-0.5,0.1l0,0L116.2-2.3l-0.3-0.1l-0.1-0.1l-0.1,0l-0.1,0.3l-11.2,26.2
	c-0.1,0.1-0.1,0.1-0.2,0.1c0,0,0,0-0.1,0.1c-0.1,0.1-0.1,0.1-0.2,0.2c0,0,0,0,0,0.1l4.3-10.1l1.1-2.6l6.1-14.4l0.1-0.1l0.1,0h0
	l0.1,0.1l0.5,0.2L181.1,24.9z"/>
<path class="st3" d="M283.7,24.9c-0.1,0-0.2,0-0.5,0.1l0,0L218.8-2.3l-0.3-0.1l-0.1-0.1l-0.1,0l-0.1,0.3L207,23.9
	c-0.1,0.1-0.1,0.1-0.2,0.1c0,0,0,0-0.1,0.1c-0.1,0.1-0.1,0.1-0.2,0.2c0,0,0,0,0,0.1l4.3-10.1l1.1-2.6l6.1-14.4l0.1-0.1l0.1,0h0
	l0.1,0.1l0.5,0.2L283.7,24.9z"/>
<g class="st4">
	<g class="st5">
		<path class="st6" d="M-163.5-145.4c-1.5,0.2-28.5,4.8-42.8-0.8c-18.6-7.3-25.3-6.6-36.1-1.4c-16.6,7.9-34.7,8.8-57.5,1
			c-23.1-8-34.4,3.4-35.7,4.8c-0.1,0.1-0.1,0.1-0.1,0.1l10.3-24.1l2.6-6.1l14.6-34.3l0.1-0.3l0.2,0.1l0.3,0.1L-163.5-145.4z"/>
		<path class="st7" d="M-190.8-156.7c-1.2,0.2-22.8,3-34.4-1.5c-15.1-6-20.4-5.5-28.9-1.8c-13.1,5.7-27.7,6-46.1-0.5
			c-18.7-6.6-27.5,1.8-28.6,2.9c-0.1,0.1-0.1,0.1-0.1,0.1l7.8-18.2l2-4.6l11-25.8l0.1-0.2l0.2,0.1l0.2,0.1L-190.8-156.7z"/>
	</g>
	<path class="st8" d="M-222.1-170c-0.9,0.1-16.7,2.2-25.2-1.2c-11.1-4.4-15-4.1-21.2-1.4c-9.6,4.1-20.2,4.3-33.7-0.4
		c-13.7-4.8-20.2,1.3-20.9,2.1c0,0-0.1,0.1-0.1,0.1l5.6-13.2l1.4-3.4l8-18.8l0.1-0.2l0.1,0.1l0.2,0.1L-222.1-170z"/>
	<path class="st9" d="M-250.2-182.2c-0.6,0.1-11.2,1.5-17-0.8c-7.4-2.9-10.1-2.7-14.3-0.9c-6.5,2.8-13.6,2.9-22.7-0.3
		c-9.2-3.2-13.6,0.9-14.1,1.4c0,0,0,0.1,0,0.1l3.8-8.9l1-2.3l5.4-12.7l0-0.1l0.1,0l0.1,0.1L-250.2-182.2z"/>
</g>
</svg>
