<?xml version="1.0" encoding="utf-8"?>
<!-- Generator: Adobe Illustrator 21.1.0, SVG Export Plug-In . SVG Version: 6.00 Build 0)  -->
<svg version="1.1" id="Layer_1" xmlns="http://www.w3.org/2000/svg" xmlns:xlink="http://www.w3.org/1999/xlink" x="0px" y="0px"
	 viewBox="0 0 283.1 105.3" style="enable-background:new 0 0 283.1 105.3;" xml:space="preserve">
<style type="text/css">
	.st0{fill:#6C449B;stroke:#6B3E98;stroke-width:2;stroke-miterlimit:10;}
	.st1{fill:#DA1C5C;}
	.st2{fill:#F4A025;}
	.st3{fill:#EF3C3A;}
	.st4{fill:#6B3E98;}
</style>
<path class="st0" d="M280,102.7c-0.3,0-0.9,0.1-1.9,0.2l0,0L47.6,4.3l-1-0.4l-0.5-0.2l-0.3-0.1l-0.4,1L5.1,98.1
	c-0.2,0.2-0.4,0.4-0.6,0.5c-0.1,0.1-0.2,0.2-0.3,0.2c-0.3,0.2-0.5,0.4-0.6,0.6c-0.1,0.1-0.2,0.2-0.2,0.2l15.6-36.2l4-9.2L45.2,2.8
	l0.2-0.5l0.4,0.2l0,0l0.5,0.2L48,3.4L280,102.7z"/>
<path class="st1" d="M-2.2,107.1c-1.3,0.2-24.6,4.1-37-0.7c-16.1-6.3-21.8-5.7-31.1-1.2c-14.3,6.9-30,7.6-49.6,0.8
	c-19.9-6.9-29.7,2.9-30.8,4.1c-0.1,0.1-0.1,0.1-0.1,0.1l8.9-20.8l2.3-5.3l12.6-29.6l0.1-0.3l0.2,0.1l0.3,0.1L-2.2,107.1z"/>
<g>
	<path class="st2" d="M34.1-3.6c-1.3,0.2-24.6,4.1-37-0.7C-18.9-10.6-24.7-10-34-5.5c-14.3,6.9-30,7.6-49.6,0.8
		c-19.9-6.9-29.7,2.9-30.8,4.1c-0.1,0.1-0.1,0.1-0.1,0.1l8.9-20.8l2.3-5.3l12.6-29.6l0.1-0.3l0.2,0.1l0.3,0.1L34.1-3.6z"/>
	<path class="st3" d="M12.3-12.8c-1.1,0.1-20,2.7-30.2-1.3c-13.3-5.2-17.9-4.9-25.4-1.6c-11.5,5-24.3,5.3-40.5-0.4
		c-16.4-5.8-24.2,1.6-25.1,2.5c-0.1,0.1-0.1,0.1-0.1,0.1l6.8-15.9l1.7-4.1l9.7-22.7l0.1-0.2l0.2,0.1l0.2,0.1L12.3-12.8z"/>
	<path class="st1" d="M-14.7-24.3c-0.8,0.1-14.8,1.9-22.3-1c-9.8-3.9-13.3-3.6-18.8-1.2c-8.5,3.7-17.9,3.8-29.9-0.4
		c-12.1-4.3-17.9,1.2-18.5,1.8c0,0-0.1,0.1-0.1,0.1l5-11.7l1.3-3l7.1-16.7l0.1-0.2l0.1,0.1l0.2,0.1L-14.7-24.3z"/>
	<path class="st4" d="M-40.8-35.4c-0.5,0.1-9.7,1.3-14.7-0.7c-6.4-2.5-8.7-2.4-12.3-0.8c-5.6,2.4-11.8,2.5-19.6-0.2
		c-8-2.8-11.7,0.8-12.2,1.2c0,0,0,0,0,0l3.3-7.7l0.8-2l4.7-11l0-0.1l0.1,0l0.1,0L-40.8-35.4z"/>
</g>
</svg>
