<?xml version="1.0" encoding="utf-8"?>
<!-- Generator: Adobe Illustrator 21.1.0, SVG Export Plug-In . SVG Version: 6.00 Build 0)  -->
<svg version="1.1" xmlns="http://www.w3.org/2000/svg" xmlns:xlink="http://www.w3.org/1999/xlink" x="0px" y="0px"
	 viewBox="0 0 1087.9 415.2" style="enable-background:new 0 0 1087.9 415.2;" xml:space="preserve">
<style type="text/css">
	.st0{display:none;fill:#6B3E97;}
	.st1{fill:#F89F26;}
	.st2{display:none;fill:#EE3C3B;}
	.st3{display:none;fill:#C91F65;}
</style>
<g id="Layer_1">
	<path class="st0" d="M1087.9,388.5c-9.6,1.5-179.8,29.9-269.9-5.5c-117.3-46.1-159.4-41.6-227.2-9.1
		c-104.5,50-218.9,55.4-362.1,5.7c-145.5-50.5-217,21.1-225.2,30c-0.5,0.6-0.8,0.9-0.8,0.9l65-152l16.5-38.6L176.6,3.7l0.8-2
		l1.5,0.6l1.9,0.8L1087.9,388.5z"/>
	<path class="st1" d="M920.9,317.5c-7.7,1-144.5,19.2-218.1-9.9c-95.7-37.8-129.6-35.2-183.7-11.8c-83.4,36.1-175.6,37.9-292.3-3.3
		c-118.6-41.8-174.8,11.6-181.2,18.2c-0.4,0.4-0.6,0.7-0.6,0.7l49.3-115.2l12.5-29.3l70-163.7l0.6-1.5l1.2,0.5l1.6,0.7L920.9,317.5z
		"/>
	<path class="st2" d="M733.8,238.2c-5.8,0.7-108.1,14-163.2-7.8c-71.7-28.3-97-26.5-137.4-9.1c-62.3,26.8-131.3,27.9-218.7-2.9
		c-88.8-31.3-130.8,8.3-135.5,13.2c-0.3,0.3-0.5,0.5-0.5,0.5l36.7-85.7l9.3-21.8L176.6,2.8l0.5-1.1l0.9,0.4l1.2,0.5L733.8,238.2z"/>
	<path class="st3" d="M555.1,162.2c-3.9,0.5-73.4,9.6-110.8-5.2c-48.7-19.2-65.8-17.9-93.3-6.1c-42.3,18.2-89.2,19.1-148.5-1.9
		c-60.3-21.3-88.8,5.7-92,9.1c-0.2,0.2-0.3,0.3-0.3,0.3l24.9-58.3l6.3-14.8l35.5-82.9l0.3-0.8l0.6,0.3l0.8,0.3L555.1,162.2z"/>
</g>
<g id="Layer_2">
</g>
</svg>
