<?xml version="1.0" encoding="utf-8"?>
<!-- Generator: Adobe Illustrator 22.1.0, SVG Export Plug-In . SVG Version: 6.00 Build 0)  -->
<svg version="1.1" xmlns="http://www.w3.org/2000/svg" xmlns:xlink="http://www.w3.org/1999/xlink" x="0px" y="0px"
	 viewBox="0 0 1085.2 412.4" style="enable-background:new 0 0 1085.2 412.4;" xml:space="preserve">
<style type="text/css">
	.st0{display:none;}
	.st1{display:inline;fill:#DA1C5C;}
	.st2{fill:#EF3C3A;}
	.st3{display:inline;fill:#F9A026;}
	.st4{display:inline;fill:#6B3E98;}
</style>
<g id="Layer_1" class="st0">
	<path class="st1" d="M1085.2,386.1c-9.6,1.5-179.8,30.1-270-5.3c-117.4-46-159.4-41.4-227.2-8.9c-104.5,50.1-218.9,55.6-362.1,6
		C80.4,327.5,8.9,399.1,0.8,408c-0.5,0.6-0.8,0.9-0.8,0.9l64.9-152.1l16.5-38.6L173.6,2l0.8-2l1.5,0.6l1.9,0.8L1085.2,386.1z"/>
</g>
<g id="Layer_2">
	<path class="st2" d="M912.8,313.6c-7.7,1-143.5,19.1-216.6-9.7c-95.1-37.5-128.7-34.9-182.4-11.6c-82.7,35.9-174.3,37.7-290.2-3
		C105.8,247.9,50,301,43.7,307.5c-0.4,0.4-0.6,0.7-0.6,0.7l48.8-114.4l12.4-29.1L173.8,2.1l0.6-1.5l1.2,0.5l1.6,0.7L912.8,313.6z"/>
</g>
<g id="Layer_3" class="st0">
	<path class="st3" d="M715.9,229.5c-5.6,0.7-105.1,13.7-158.6-7.4c-69.7-27.5-94.3-25.7-133.6-8.7c-60.5,26-127.6,27.2-212.5-2.7
		c-86.3-30.4-127.1,8.2-131.7,13c-0.3,0.3-0.4,0.5-0.4,0.5l35.6-83.3l9-21.2L174.2,1.1l0.5-1.1l0.9,0.4l1.1,0.5L715.9,229.5z"/>
</g>
<g id="Layer_4" class="st0">
	<path class="st4" d="M538.9,154.5c-3.8,0.5-70.8,9.3-106.8-4.9c-46.9-18.5-63.5-17.3-90-5.8c-40.8,17.6-86,18.4-143.2-1.7
		c-58.1-20.4-85.6,5.6-88.7,8.8c-0.2,0.2-0.3,0.3-0.3,0.3l24-56.2l6.1-14.3l34.1-80l0.3-0.7l0.6,0.3l0.8,0.3L538.9,154.5z"/>
</g>
</svg>
