<?xml version="1.0" encoding="utf-8"?>
<!-- Generator: Adobe Illustrator 21.1.0, SVG Export Plug-In . SVG Version: 6.00 Build 0)  -->
<svg version="1.1" id="Layer_1" xmlns="http://www.w3.org/2000/svg" xmlns:xlink="http://www.w3.org/1999/xlink" x="0px" y="0px"
	 viewBox="0 0 79.3 29.3" style="enable-background:new 0 0 79.3 29.3;" xml:space="preserve">
<style type="text/css">
	.st0{display:none;fill:#DA1C5C;stroke:#D91B5C;stroke-miterlimit:10;}
	.st1{display:none;fill:#6B3E98;stroke:#6B3E98;stroke-miterlimit:10;}
	.st2{display:none;fill:#EF3C3A;stroke:#EF3D3B;stroke-miterlimit:10;}
	.st3{fill:#F9A026;stroke:#F9A128;stroke-width:0.5;stroke-miterlimit:10;}
</style>
<path class="st0" d="M81.5,29.9c-0.1,0-0.2,0-0.5,0.1l0,0L16.6,2.7l-0.3-0.1l-0.1-0.1l-0.1,0L16,2.8L4.8,28.9
	C4.8,29,4.7,29,4.7,29.1c0,0,0,0-0.1,0.1c-0.1,0.1-0.1,0.1-0.2,0.2c0,0,0,0,0,0.1l4.3-10.1l1.1-2.6l6.1-14.4L16,2.2l0.1,0h0l0.1,0.1
	l0.5,0.2L81.5,29.9z"/>
<path class="st1" d="M80.6,29.1c-0.1,0-0.2,0-0.5,0.1l0,0L15.6,1.9l-0.3-0.1l-0.1-0.1l-0.1,0L15,1.9L3.9,28.1
	c-0.1,0.1-0.1,0.1-0.2,0.1c0,0,0,0-0.1,0.1c-0.1,0.1-0.1,0.1-0.2,0.2c0,0,0,0,0,0.1l4.3-10.1l1.1-2.6L15,1.4L15,1.3l0.1,0h0l0.1,0.1
	l0.5,0.2L80.6,29.1z"/>
<path class="st2" d="M80.7,29.9c-0.1,0-0.2,0-0.5,0.1l0,0L15.8,2.6l-0.3-0.1l-0.1-0.1l-0.1,0l-0.1,0.3L4,28.8
	c-0.1,0.1-0.1,0.1-0.2,0.1c0,0,0,0-0.1,0.1c-0.1,0.1-0.1,0.1-0.2,0.2c0,0,0,0,0,0.1l4.3-10.1L9,16.6l6.1-14.4l0.1-0.1l0.1,0h0
	l0.1,0.1l0.5,0.2L80.7,29.9z"/>
<path class="st3" d="M78,28.5c-0.1,0-0.2,0-0.5,0.1l0,0L13.1,1.3l-0.3-0.1l-0.1-0.1l-0.1,0l-0.1,0.3L1.3,27.5
	c-0.1,0.1-0.1,0.1-0.2,0.1c0,0,0,0-0.1,0.1c-0.1,0.1-0.1,0.1-0.2,0.2c0,0,0,0,0,0.1l4.3-10.1l1.1-2.6l6.1-14.4l0.1-0.1l0.1,0h0
	l0.1,0.1L13.1,1L78,28.5z"/>
</svg>
